<svg id="metodos_de_pago" data-name="metodos de pago" xmlns="http://www.w3.org/2000/svg" width="25" height="25" viewBox="0 0 25 25">
  <g id="Grupo_16737" data-name="Grupo 16737">
    <rect id="Rect치ngulo_2352" data-name="Rect치ngulo 2352" width="25" height="25" fill="#263645" opacity="0"/>
    <path id="Trazado_34151" data-name="Trazado 34151" d="M12.483,22.346c-6.052,0-9.094,0-10.594-1.24S.4,17.377.4,12.4.4,4.919,1.89,3.69,6.431,2.45,12.483,2.45s9.094,0,10.594,1.24,1.49,3.729,1.49,8.708,0,7.479-1.49,8.708-4.542,1.24-10.594,1.24Z" transform="translate(0.017 0.102)" fill="#263645" opacity="0.4"/>
    <path id="Trazado_34152" data-name="Trazado 34152" d="M.4,11.607H24.577c0-1.792-.01-3.25-.1-4.427H.5C.41,8.357.4,9.805.4,11.607Z" transform="translate(0.017 0.299)" fill="#263645"/>
    <rect id="Rect치ngulo_2353" data-name="Rect치ngulo 2353" width="6.333" height="3.833" rx="1.42" transform="translate(14.49 15.302)" fill="#263645"/>
  </g>
</svg>
