<svg xmlns="http://www.w3.org/2000/svg" width="25" height="25" viewBox="0 0 25 25">
  <g id="terminos_y_condiciones" data-name="terminos y condiciones" transform="translate(0 0.01)">
    <g id="Grupo_18936" data-name="Grupo 18936" transform="translate(0 -0.01)">
      <rect id="Rectángulo_2483" data-name="Rectángulo 2483" width="25" height="24.99" transform="translate(0 0.01)" fill="#263645" opacity="0"/>
      <g id="Grupo_18935" data-name="Grupo 18935" transform="translate(1.12)">
        <path id="Trazado_35596" data-name="Trazado 35596" d="M12.5,0A71.653,71.653,0,0,0,4.53.38,3.384,3.384,0,0,0,1.52,3.389a83.91,83.91,0,0,0-.4,9.1,83.91,83.91,0,0,0,.4,9.1A3.374,3.374,0,0,0,4.53,24.59a69.364,69.364,0,0,0,7.97.38,71.8,71.8,0,0,0,7.97-.38,3.384,3.384,0,0,0,3.01-3.009,83.91,83.91,0,0,0,.4-9.1c0-1.689-.03-3.149-.08-4.4a.7.7,0,0,0-.05-.25,12.662,12.662,0,0,0-3.29-4.518A12.654,12.654,0,0,0,15.73.08a1.7,1.7,0,0,0-.22-.04c-.9-.03-1.91-.05-3.01-.05Z" transform="translate(-1.12 0.01)" fill="#263645" opacity="0.4"/>
        <path id="Trazado_35597" data-name="Trazado 35597" d="M23.79,7.95c-1.41,0-3.84-.02-5.23-.16a3.2,3.2,0,0,1-2.86-2.9c-.12-1.28-.15-3.42-.15-4.84a.858.858,0,0,1,.17.03,12.733,12.733,0,0,1,4.74,3.24,12.667,12.667,0,0,1,3.29,4.52c.01.04.02.07.03.11Z" transform="translate(-1.12 0.01)" fill="#263645"/>
        <path id="Trazado_35598" data-name="Trazado 35598" d="M10.28,18.61a1.114,1.114,0,0,0,1.11,1.11H17.5a1.11,1.11,0,0,0,0-2.22H11.39A1.114,1.114,0,0,0,10.28,18.61Zm1.11-3.89a1.11,1.11,0,1,1,0-2.22h3.89a1.11,1.11,0,0,1,0,2.22Zm-5,3.89A1.114,1.114,0,0,0,7.5,19.72h.56a1.11,1.11,0,0,0,0-2.22H7.5A1.114,1.114,0,0,0,6.39,18.61ZM7.5,14.72a1.11,1.11,0,1,1,0-2.22h.56a1.11,1.11,0,1,1,0,2.22Z" transform="translate(-1.12 0.003)" fill="#263645" fill-rule="evenodd"/>
      </g>
    </g>
  </g>
</svg>
