<svg id="idioma" xmlns="http://www.w3.org/2000/svg" width="25" height="25" viewBox="0 0 25 25">
  <g id="Grupo_18932" data-name="Grupo 18932">
    <rect id="Rectángulo_2481" data-name="Rectángulo 2481" width="25" height="25" fill="#263645" opacity="0"/>
    <g id="Grupo_18931" data-name="Grupo 18931">
      <path id="Trazado_35593" data-name="Trazado 35593" d="M12.5,0A12.5,12.5,0,1,0,25,12.5,12.5,12.5,0,0,0,12.5,0Z" fill="#263645" opacity="0.4"/>
      <path id="Trazado_35594" data-name="Trazado 35594" d="M8.66,17.22a23.12,23.12,0,0,0,1.08,4.49,8.679,8.679,0,0,0,1.44,2.65,2.657,2.657,0,0,0,.75.63,12.841,12.841,0,0,1-2.65-.4,12.289,12.289,0,0,1-1.1-2.3,24.433,24.433,0,0,1-1.2-5.06H.92a13.058,13.058,0,0,1-.55-1.67H6.79c-.08-.99-.13-2.01-.13-3.06s.04-2.07.13-3.06H.38A12.087,12.087,0,0,1,.93,7.77H6.99A23.639,23.639,0,0,1,8.2,2.71,12.946,12.946,0,0,1,9.3.41a12.2,12.2,0,0,1,2.65-.4,2.657,2.657,0,0,0-.75.63A8.772,8.772,0,0,0,9.76,3.29,22.215,22.215,0,0,0,8.67,7.78h7.67a22.383,22.383,0,0,0-1.09-4.49A8.679,8.679,0,0,0,13.81.64a2.657,2.657,0,0,0-.75-.63,12.841,12.841,0,0,1,2.65.4,11.7,11.7,0,0,1,1.1,2.3,24.408,24.408,0,0,1,1.21,5.06h6.06a13.058,13.058,0,0,1,.55,1.67H18.21c.08.99.13,2.01.13,3.06s-.04,2.07-.13,3.06h6.42a12.087,12.087,0,0,1-.55,1.67H18.02a24.278,24.278,0,0,1-1.2,5.06,12.946,12.946,0,0,1-1.1,2.3,12.2,12.2,0,0,1-2.65.4,2.657,2.657,0,0,0,.75-.63,8.772,8.772,0,0,0,1.44-2.65,22.248,22.248,0,0,0,1.08-4.49Zm8-4.72c0-1.05-.05-2.08-.14-3.06H8.46c-.09.98-.14,2-.14,3.06s.05,2.08.13,3.06h8.06c.09-.98.13-2,.13-3.06Z" fill="#263645" fill-rule="evenodd"/>
    </g>
  </g>
</svg>
