<svg id="contraseña" xmlns="http://www.w3.org/2000/svg" width="25" height="25" viewBox="0 0 25 25">
  <g id="Grupo_18927" data-name="Grupo 18927">
    <rect id="Rectángulo_2478" data-name="Rectángulo 2478" width="25" height="25" fill="#263645" opacity="0"/>
    <g id="Grupo_18926" data-name="Grupo 18926">
      <path id="Trazado_35589" data-name="Trazado 35589" d="M12.5,8.18c-1.47,0-2.83.02-4.16.07A6.229,6.229,0,0,0,2.4,13.74a26.257,26.257,0,0,0-.18,2.85,24.088,24.088,0,0,0,.18,2.85,6.229,6.229,0,0,0,5.94,5.49c1.33.05,2.69.07,4.16.07s2.83-.02,4.16-.07a6.229,6.229,0,0,0,5.94-5.49,26.257,26.257,0,0,0,.18-2.85,24.088,24.088,0,0,0-.18-2.85,6.229,6.229,0,0,0-5.94-5.49C15.33,8.2,13.97,8.18,12.5,8.18Z" fill="#263645" fill-rule="evenodd" opacity="0.4"/>
      <path id="Trazado_35590" data-name="Trazado 35590" d="M7.83,1.94A6.6,6.6,0,0,1,19.1,6.61V8.86a6.093,6.093,0,0,0-2.44-.6H16.4V6.61a3.9,3.9,0,1,0-7.8,0V8.25H8.34a6.273,6.273,0,0,0-2.44.61V6.61A6.609,6.609,0,0,1,7.84,1.94Zm6.02,13.61a1.35,1.35,0,0,0-2.7,0v1.8a1.35,1.35,0,1,0,2.7,0v-1.8Z" fill="#263645" fill-rule="evenodd"/>
    </g>
  </g>
</svg>
