<svg id="Cesta" xmlns="http://www.w3.org/2000/svg" width="25" height="25" viewBox="0 0 25 25">
  <g id="Grupo_16635" data-name="Grupo 16635" transform="translate(0)">
    <rect id="Rectángulo_2300" data-name="Rectángulo 2300" width="25" height="25" fill="#263645" opacity="0"/>
    <g id="Grupo_16634" data-name="Grupo 16634" transform="translate(0 0.008)">
      <path id="Trazado_33977" data-name="Trazado 33977" d="M8.528,1.33A2.929,2.929,0,0,0,5.97,2.788,42.65,42.65,0,0,0,3.395,8.047c.492,0,1.092-.017,1.808-.017A41.011,41.011,0,0,1,7.412,3.622,1.281,1.281,0,0,1,8.528,3H10.1a.833.833,0,0,0,0-1.667H8.528ZM19.77,2.788a42.65,42.65,0,0,1,2.575,5.258c-.492,0-1.092-.017-1.808-.017a41.011,41.011,0,0,0-2.208-4.408A1.281,1.281,0,0,0,17.212,3H15.645a.833.833,0,0,1,0-1.667h1.567A2.929,2.929,0,0,1,19.77,2.788ZM12.87,13c-5.375,0-8.633-.042-10.133-.058a2.92,2.92,0,0,1-.517-.05c.05.483.125,1.042.2,1.667.267,2.042.7,4.758,1.333,7.433A3.815,3.815,0,0,0,7.07,24.913a55.786,55.786,0,0,0,5.8.308,55.786,55.786,0,0,0,5.8-.308,3.815,3.815,0,0,0,3.317-2.925,73.59,73.59,0,0,0,1.333-7.433c.083-.625.15-1.183.2-1.667a2.92,2.92,0,0,1-.517.05c-1.5.025-4.758.058-10.133.058Z" transform="translate(-0.37 -0.23)" fill="#263645" fill-rule="evenodd" opacity="0.4"/>
      <path id="Trazado_33978" data-name="Trazado 33978" d="M12.5,14.33c-5.375,0-8.633-.042-10.133-.058a2.219,2.219,0,0,1-2.25-1.5,3.859,3.859,0,0,1,0-1.883,2.23,2.23,0,0,1,2.25-1.5c1.5-.025,4.758-.058,10.133-.058s8.633.042,10.133.058a2.219,2.219,0,0,1,2.25,1.5,3.859,3.859,0,0,1,0,1.883,2.23,2.23,0,0,1-2.25,1.5C21.133,14.3,17.875,14.33,12.5,14.33Z" transform="translate(0 -1.563)" fill="#263645"/>
      <path id="Trazado_33979" data-name="Trazado 33979" d="M14.277,3.893c.892,0,1.542-.008,1.983-.025a1.615,1.615,0,0,0,1.617-1.475c.008-.133.017-.275.017-.442a3.628,3.628,0,0,0-.017-.442A1.608,1.608,0,0,0,16.26.035C15.818.018,15.168.01,14.277.01s-1.542.008-1.983.025A1.615,1.615,0,0,0,10.677,1.51c-.008.133-.017.275-.017.442a3.627,3.627,0,0,0,.017.442,1.608,1.608,0,0,0,1.617,1.475c.442.017,1.092.025,1.983.025Z" transform="translate(-1.777 -0.01)" fill="#263645"/>
      <path id="Trazado_33980" data-name="Trazado 33980" d="M9.394,18.669a.835.835,0,0,1,.933.725l.558,4.442a.836.836,0,1,1-1.658.208L8.669,19.6A.835.835,0,0,1,9.394,18.669Z" transform="translate(-1.444 -3.119)" fill="#263645" fill-rule="evenodd"/>
      <path id="Trazado_33981" data-name="Trazado 33981" d="M20.16,18.669a.835.835,0,0,0-.933.725l-.558,4.442a.836.836,0,0,0,1.658.208l.558-4.442A.835.835,0,0,0,20.16,18.669Z" transform="translate(-3.11 -3.119)" fill="#263645" fill-rule="evenodd"/>
      <path id="Trazado_33982" data-name="Trazado 33982" d="M14.833,18.67a.836.836,0,0,1,.833.833v4.442a.833.833,0,0,1-1.667,0V19.5A.836.836,0,0,1,14.833,18.67Z" transform="translate(-2.333 -3.12)" fill="#263645" fill-rule="evenodd"/>
    </g>
  </g>
</svg>
