<svg xmlns="http://www.w3.org/2000/svg" width="25" height="25" viewBox="0 0 25 25">
  <g id="Refiere" transform="translate(0.002)">
    <g id="Grupo_18925" data-name="Grupo 18925" transform="translate(-0.002)">
      <rect id="Rect치ngulo_2476" data-name="Rect치ngulo 2476" width="25" height="25" fill="#263645" opacity="0"/>
      <path id="Uni칩n_11" data-name="Uni칩n 11" d="M10.646,23.451a54.294,54.294,0,0,1-9.638-.941C-.084,21.976-.242,21.443.3,20.352a9.146,9.146,0,0,1,1.858-2.466,11.919,11.919,0,0,1,16.853-.008,11.637,11.637,0,0,1,1.774,2.266c.758,1.283.633,1.741-.708,2.408a43.131,43.131,0,0,1-9.189.9h-.233ZM5.314,6.54a5.34,5.34,0,1,1,5.34,5.34,5.34,5.34,0,0,1-5.34-5.34h0Z" transform="translate(0.002 -0.2)" fill="#263645" opacity="0.4"/>
      <path id="Trazado_35588" data-name="Trazado 35588" d="M27.123,21.787a.979.979,0,0,1,.008,1.241,21.453,21.453,0,0,1-3.849,3.682.889.889,0,0,1-1.425-.641c-.058-.483-.125-1.075-.167-1.749-4.057,0-4.857,2.049-4.957,2.741a1.23,1.23,0,0,1-.275.433,1.374,1.374,0,0,1-1.025.492h0a1.376,1.376,0,0,1-1.05-.483,1.28,1.28,0,0,1-.25-.4c-.092-.675-.283-6.681,7.522-6.681.033-.666.092-1.258.142-1.733a.872.872,0,0,1,1.416-.616,21.722,21.722,0,0,1,3.9,3.732Z" transform="translate(-2.354 -2.985)" fill="#263645"/>
    </g>
  </g>
</svg>
