<svg xmlns="http://www.w3.org/2000/svg" width="25" height="25" viewBox="0 0 25 25">
  <g id="Reportes" transform="translate(0 0.01)">
    <g id="Grupo_16644" data-name="Grupo 16644" transform="translate(0 -0.01)">
      <rect id="Rectángulo_2304" data-name="Rectángulo 2304" width="25" height="25" fill="#263645" opacity="0"/>
      <g id="Grupo_16643" data-name="Grupo 16643">
        <path id="Trazado_33987" data-name="Trazado 33987" d="M0,24.828A22.9,22.9,0,0,0,.1,27.2a1.965,1.965,0,0,0,1.967,1.774c.379.016.887.024,1.548.024s1.161-.008,1.548-.024A1.965,1.965,0,0,0,7.127,27.2a22.9,22.9,0,0,0,.1-2.37,22.9,22.9,0,0,0-.1-2.37A1.965,1.965,0,0,0,5.16,20.684c-.379-.016-.887-.024-1.548-.024s-1.161.008-1.548.024A1.965,1.965,0,0,0,.1,22.458a22.9,22.9,0,0,0-.1,2.37Z" transform="translate(0 -3.996)" fill="#263645" opacity="0.4"/>
        <path id="Trazado_33988" data-name="Trazado 33988" d="M22.04,19.074c0,3.16.073,4.95.145,5.958a2.16,2.16,0,0,0,2.056,2.056c.371.024.83.04,1.411.04s1.04-.016,1.411-.04a2.16,2.16,0,0,0,2.056-2.056c.073-1.008.145-2.8.145-5.958s-.073-4.95-.145-5.958a2.16,2.16,0,0,0-2.056-2.056c-.371-.024-.83-.04-1.411-.04s-1.04.016-1.411.04a2.16,2.16,0,0,0-2.056,2.056C22.113,14.124,22.04,15.914,22.04,19.074Z" transform="translate(-4.271 -2.128)" fill="#263645" opacity="0.4"/>
        <path id="Trazado_33989" data-name="Trazado 33989" d="M11.02,22.369c0,1.895.056,3.088.121,3.846A2.1,2.1,0,0,0,13.2,28.173c.371.016.838.024,1.427.024s1.056-.008,1.427-.024a2.1,2.1,0,0,0,2.064-1.959c.064-.75.121-1.951.121-3.846s-.056-3.088-.121-3.846a2.1,2.1,0,0,0-2.064-1.959c-.371-.016-.838-.024-1.427-.024s-1.056.008-1.427.024a2.1,2.1,0,0,0-2.064,1.959C11.076,19.273,11.02,20.474,11.02,22.369Z" transform="translate(-2.136 -3.197)" fill="#263645" opacity="0.4"/>
        <path id="Trazado_33990" data-name="Trazado 33990" d="M22.79.014a18.379,18.379,0,0,0-4.329.347,1.364,1.364,0,0,0-.677,2.306l.992.992c-.314.29-.726.661-1.185,1.1a48.521,48.521,0,0,0-3.644,3.821.107.107,0,0,1-.081.032.06.06,0,0,1-.04-.008s-.008,0-.016-.016c-.508-.7-1.169-1.612-1.878-2.483a2.127,2.127,0,0,0-2.846-.435A38.527,38.527,0,0,0,1.869,12.22c-.185.218-.379.435-.572.661A1.11,1.11,0,1,0,3,14.308c.185-.218.363-.427.54-.629A37,37,0,0,1,10.254,7.56C10.907,8.366,11.528,9.2,12,9.874A2.319,2.319,0,0,0,15.647,10a48,48,0,0,1,3.475-3.644c.492-.468.911-.855,1.225-1.145l1.064,1.064A1.362,1.362,0,0,0,23.717,5.6a18.379,18.379,0,0,0,.347-4.329A1.341,1.341,0,0,0,22.782-.01Z" transform="translate(-0.201 0.01)" fill="#263645"/>
      </g>
    </g>
  </g>
</svg>
