<svg id="notificaciones" xmlns="http://www.w3.org/2000/svg" width="25" height="25" viewBox="0 0 25 25">
  <g id="Grupo_18930" data-name="Grupo 18930">
    <rect id="Rectángulo_2479" data-name="Rectángulo 2479" width="25" height="25" fill="#263645" opacity="0"/>
    <g id="Grupo_18929" data-name="Grupo 18929">
      <path id="Trazado_35591" data-name="Trazado 35591" d="M23.15,16.79l-.81-1.31a8.876,8.876,0,0,1-1.28-3.87L20.8,8.54a8.354,8.354,0,0,0-1.79-4.5,8.256,8.256,0,0,0-6.49-3.01h-.04A8.256,8.256,0,0,0,5.99,4.04,8.432,8.432,0,0,0,4.2,8.54l-.26,3.07a8.876,8.876,0,0,1-1.28,3.87l-.81,1.31c-.81,1.32-.37,2.67,1.16,2.88a76.055,76.055,0,0,0,9.48.44h.06a75.306,75.306,0,0,0,9.43-.44c1.53-.2,1.98-1.56,1.16-2.88Zm-5.64-7.1c-.69.61-.98-1.32-2.67-3.24s-2.18-2.4-1.5-3.01,1.6-.5,3.29,1.43S18.2,9.09,17.51,9.69Z" fill="#263645"/>
      <path id="Trazado_35592" data-name="Trazado 35592" d="M8.18,20.05a4.4,4.4,0,0,0,8.74,0" fill="#263645" opacity="0.4"/>
    </g>
  </g>
</svg>
