<svg id="politica_de_privacidad" data-name="politica de privacidad" xmlns="http://www.w3.org/2000/svg" width="25" height="25" viewBox="0 0 25 25">
  <g id="Grupo_18934" data-name="Grupo 18934">
    <rect id="Rect치ngulo_2482" data-name="Rect치ngulo 2482" width="25" height="25" fill="#263645" opacity="0"/>
    <g id="Grupo_18933" data-name="Grupo 18933">
      <path id="Trazado_35595" data-name="Trazado 35595" d="M24.04,3.99a3.022,3.022,0,0,0-2.63-2.73A49.85,49.85,0,0,0,14.97.69c-.8-.05-1.6-.07-2.4-.08h-.14c-.8,0-1.6.03-2.4.08a48.139,48.139,0,0,0-6.44.57A3.013,3.013,0,0,0,.96,3.99a31.334,31.334,0,0,0-.25,8.2c.6,5.58,3.71,9.36,8.85,11.55a7.428,7.428,0,0,0,2.87.64h.14a7.592,7.592,0,0,0,2.87-.65c5.14-2.19,8.25-5.97,8.85-11.55a30.9,30.9,0,0,0-.25-8.2Z" fill="#263645" opacity="0.4"/>
      <path id="Uni칩n_5" data-name="Uni칩n 5" d="M6.98,12.56q1.02-1.76,4.54.28h.01c.31-.54.67-1.17,1.1-1.9q3.09-5.35,4.85-4.34t-1.33,6.37c-.7,1.21-1.24,2.15-1.68,2.86-.1.22-.25.48-.43.8q-1.02,1.76-4.54-.28t-2.51-3.8Z" fill="#263645"/>
    </g>
  </g>
</svg>
