<svg id="atencion_al_cliente" data-name="atencion al cliente" xmlns="http://www.w3.org/2000/svg" width="25" height="25" viewBox="0 0 25 25">
  <g id="Grupo_16631" data-name="Grupo 16631">
    <path id="Trazado_33972" data-name="Trazado 33972" d="M0,0V25H25V0Z" fill="#263645" opacity="0"/>
    <g id="Grupo_16630" data-name="Grupo 16630" transform="translate(1.983 0.646)">
      <path id="Trazado_33973" data-name="Trazado 33973" d="M23.188,14.263,21.263,11.58a9.444,9.444,0,0,0-18.883.192,9.294,9.294,0,0,0,3.675,7.4v3.65A1.552,1.552,0,0,0,7.3,24.388a24.522,24.522,0,0,0,4.517.367,24.6,24.6,0,0,0,4.517-.367,1.552,1.552,0,0,0,1.25-1.567v-1.45l1.25.158a1.731,1.731,0,0,0,1.942-1.575l.283-3.392a6.778,6.778,0,0,0,1.867-.775,1.045,1.045,0,0,0,.25-1.525ZM11.03,11.888a1.633,1.633,0,1,1,1.633-1.633A1.636,1.636,0,0,1,11.03,11.888Z" transform="translate(-2.38 -1.051)" fill="#263645" fill-rule="evenodd" opacity="0.4"/>
      <path id="Trazado_33974" data-name="Trazado 33974" d="M19.287,16.729a6.472,6.472,0,0,1-5.333-2.692,7,7,0,0,1-.475-.808,3.466,3.466,0,0,0-.067-6.342V1.837A1.039,1.039,0,0,0,12.537.812a3.3,3.3,0,0,0-.992,0,1.025,1.025,0,0,0-.875,1.025V6.879a3.469,3.469,0,0,0,1.042,6.642,7.718,7.718,0,0,0,.767,1.417A8.126,8.126,0,0,0,19.2,18.446h.042a.859.859,0,0,0,.042-1.717Zm-7.225-5.117a1.633,1.633,0,1,1,1.633-1.633A1.636,1.636,0,0,1,12.062,11.613Z" transform="translate(-3.412 -0.775)" fill="#263645"/>
    </g>
  </g>
</svg>
