<svg xmlns="http://www.w3.org/2000/svg" width="25" height="25.009" viewBox="0 0 25 25.009">
  <g id="recarga_promocion" data-name="recarga promocion" transform="translate(0 0.008)">
    <g id="Grupo_16703" data-name="Grupo 16703" transform="translate(0 -0.007)">
      <rect id="Rectángulo_2337" data-name="Rectángulo 2337" width="25" height="25" transform="translate(0 0.009)" fill="#263645" opacity="0"/>
      <g id="Grupo_16702" data-name="Grupo 16702" transform="translate(0.361)">
        <g id="Grupo_16700" data-name="Grupo 16700" transform="translate(3.373)" opacity="0.4">
          <path id="Trazado_34069" data-name="Trazado 34069" d="M24.648,8.387l-.367-.45.092-.575a3.259,3.259,0,0,0-2.058-3.557L21.774,3.6l-.208-.541A3.259,3.259,0,0,0,18.009,1l-.575.092-.45-.367a3.25,3.25,0,0,0-4.107,0l-.45.367L11.853,1A3.259,3.259,0,0,0,8.3,3.056L8.087,3.6l-.541.208A3.259,3.259,0,0,0,5.488,7.363l.092.575-.367.45a3.25,3.25,0,0,0,0,4.107l.367.45-.092.575a3.259,3.259,0,0,0,2.058,3.557l.541.208.208.541a3.259,3.259,0,0,0,3.557,2.058l.575-.092.45.367a3.25,3.25,0,0,0,4.107,0l.45-.367.575.092a3.259,3.259,0,0,0,3.557-2.058l.208-.541.541-.208a3.259,3.259,0,0,0,2.058-3.557l-.092-.575.367-.45A3.25,3.25,0,0,0,24.648,8.387ZM9.978,12.494Q7.346,15.068,6.563,14.26T8.4,10.886q2.624-2.566,3.415-1.766T9.978,12.494Z" transform="translate(-4.482 0.007)" fill="#263645" fill-rule="evenodd"/>
        </g>
        <g id="Grupo_16701" data-name="Grupo 16701" transform="translate(0 4.283)">
          <path id="Trazado_34070" data-name="Trazado 34070" d="M12.667,22.5l2.141-.491a4.76,4.76,0,0,1-8.455,4.332A4.676,4.676,0,0,1,5.72,24.1l2.224-.508-.1.392a2.572,2.572,0,0,0,3.924,2.208,2.583,2.583,0,0,0,1.041-3.449l-.133-.225Z" transform="translate(-1.316 -7.952)" fill="#263645" fill-rule="evenodd"/>
          <path id="Trazado_34071" data-name="Trazado 34071" d="M19.015,14.3a15.787,15.787,0,0,0-1.749-4.173,15.982,15.982,0,0,0-2.757-3.582,6.389,6.389,0,0,0-1.549-1.1,2.646,2.646,0,0,0-1.691-.267,2.06,2.06,0,0,0-1.066.683l.516.475L10.2,5.864,1.38,15.46a3.531,3.531,0,0,0,3.39,5.831l12.712-2.916a2.074,2.074,0,0,0,1.116-.583,2.7,2.7,0,0,0,.608-1.608,6.32,6.32,0,0,0-.192-1.891Zm-9.7-.941C7.436,15.2,6.5,15.66,5.9,15.127c-.875-.766.616-2.249,1.841-3.374,2.707-2.482,2.632-2.574,3.415-1.766q.791.808-1.841,3.374Z" transform="translate(-0.433 -5.135)" fill="#263645" fill-rule="evenodd"/>
        </g>
      </g>
    </g>
  </g>
</svg>
