<svg id="add_saldo" data-name="add saldo" xmlns="http://www.w3.org/2000/svg" width="17" height="17" viewBox="0 0 17 17">
  <g id="Grupo_16674" data-name="Grupo 16674">
    <rect id="Rectángulo_2320" data-name="Rectángulo 2320" width="17" height="17" fill="#263645" opacity="0"/>
    <g id="Grupo_16673" data-name="Grupo 16673">
      <path id="Trazado_34040" data-name="Trazado 34040" d="M8.5.35A8.15,8.15,0,1,0,16.65,8.5,8.164,8.164,0,0,0,8.5.35Zm0,14.94A6.79,6.79,0,1,1,15.29,8.5,6.8,6.8,0,0,1,8.5,15.29Z" fill="#263645"/>
      <path id="Trazado_34041" data-name="Trazado 34041" d="M11.8,7.82H9.18V5.2a.68.68,0,0,0-1.36,0V7.82H5.2a.68.68,0,0,0,0,1.36H7.82V11.8a.68.68,0,1,0,1.36,0V9.18H11.8a.68.68,0,1,0,0-1.36Z" fill="#263645"/>
    </g>
  </g>
</svg>
