<svg id="Amex" xmlns="http://www.w3.org/2000/svg" width="30" height="30" viewBox="0 0 30 30">
  <g id="Grupo_19165" data-name="Grupo 19165">
    <rect id="Rectángulo_2573" data-name="Rectángulo 2573" width="30" height="30" fill="#8f979f" opacity="0"/>
    <g id="Grupo_19164" data-name="Grupo 19164">
      <path id="Trazado_35760" data-name="Trazado 35760" d="M28.33,5.12A1.743,1.743,0,0,1,30,6.92V23.1a1.743,1.743,0,0,1-1.67,1.8H1.67A1.743,1.743,0,0,1,0,23.1V6.91a1.743,1.743,0,0,1,1.67-1.8H28.33" fill="#286cb4"/>
      <path id="Trazado_35761" data-name="Trazado 35761" d="M6.63,13.69l.64,1.56H5.98l.64-1.56Zm13.4.07H17.55v.69h2.44v1.03H17.55v.77h2.48v.62L21.76,15l-1.73-1.95v.71h0ZM8.31,11.81h3.33l.74,1.61.68-1.62H21.7l.9.99.93-.99h3.96l-2.93,3.21,2.9,3.19H23.43l-.9-.99-.93.99H7.52l-.41-.99H6.17l-.41.99H2.51l2.74-6.4H8.32Zm7.22.9H13.66l-1.25,2.95-1.35-2.95H9.21v4.01L7.49,12.71H5.83L3.84,17.3H5.13l.41-.99H7.72l.41.99H10.4V14.02l1.46,3.28h.99l1.45-3.27V17.3h1.22V12.71h0Zm7.78,2.3,2.11-2.3H23.9l-1.34,1.44-1.29-1.44H16.36v4.6H21.2l1.34-1.45,1.29,1.45h1.56L23.3,15.02h0Z" fill="#fff"/>
    </g>
  </g>
</svg>
