<svg id="american_express" data-name="american express" xmlns="http://www.w3.org/2000/svg" width="30.012" height="30" viewBox="0 0 30.012 30">
  <g id="Grupo_18948" data-name="Grupo 18948">
    <rect id="Rectángulo_2489" data-name="Rectángulo 2489" width="30" height="30" fill="#8f979f" opacity="0"/>
    <g id="Grupo_18947" data-name="Grupo 18947" transform="translate(0 6.12)">
      <path id="Trazado_35602" data-name="Trazado 35602" d="M27.576,22.86H2.424a2.272,2.272,0,0,1-1.44-.516A2.651,2.651,0,0,1,0,20.244V7.716A2.716,2.716,0,0,1,.8,5.772,2.308,2.308,0,0,1,2.424,5.1H27.588a2.354,2.354,0,0,1,1.956,1.08,2.765,2.765,0,0,1,.468,1.536v12.54A2.741,2.741,0,0,1,29.4,22a2.341,2.341,0,0,1-1.812.876Z" transform="translate(0 -5.1)" fill="#1777bf"/>
      <g id="Grupo_18946" data-name="Grupo 18946" transform="translate(1.095 3.615)">
        <path id="Trazado_35603" data-name="Trazado 35603" d="M2.97,10.805h.972L3.456,9.45Z" transform="translate(-0.588 -8.188)" fill="#fff"/>
        <path id="Trazado_35604" data-name="Trazado 35604" d="M8.5,13.31l.219-.585v.585h6.162V12.047h.085q.085,0,.085.146v1.063h3.2v-.292a2.485,2.485,0,0,0,1.2.292h1.337l.267-.771h.62l.267.771h2.577v-.731l.4.731h2.091V8.5H25.014v.585L24.747,8.5H22.656v.585L22.389,8.5H19.545a2.444,2.444,0,0,0-1.24.292V8.5H16.312v.292a1.173,1.173,0,0,0-.839-.292H8.327L7.841,9.709,7.354,8.5H5.094v.585L4.875,8.5H2.918l-.887,2.285L1.01,13.257h.024l-.024.053H3.271v-.053h.049l.267-.731h.571l.267.771H7v-.585l.219.585H8.509Zm4.521-3.4H11.292v.624h1.689v.678H11.292v.678h1.726v.731H10.539V9.178h2.479v.731Zm1.24,1.461v1.209H13.5v-3.4h1.689a1.558,1.558,0,0,1,.887.146.84.84,0,0,1,.352.757.936.936,0,0,1-.535.89.062.062,0,0,1,.049.027.089.089,0,0,0-.049.027.811.811,0,0,1,.28.133.435.435,0,0,1,.073.106,1.373,1.373,0,0,1,.134.624v.678h-.668V12.18a1.214,1.214,0,0,0-.134-.678.313.313,0,0,0-.134-.093c-.061-.053-.194-.053-.4-.053h-.8Zm3.415,1.209H16.92v-3.4h.754Zm4.254-3.348,1.24,3.255v-.159l.049.12V11.277l-.049-.053V9.231h1.106l1.288,2.378V9.231h.754v3.348h-.972L23.92,10.015v2.139l-.049-.053v.492H22.413l-.267-.731H20.59l-.267.771h-.839a1.475,1.475,0,0,1-1.07-.385,1.8,1.8,0,0,1-.4-1.315,2.061,2.061,0,0,1,.4-1.355,1.313,1.313,0,0,1,1.106-.385h.7v.731h-.7a.748.748,0,0,0-.571.2,1.206,1.206,0,0,0-.219.771,1.166,1.166,0,0,0,.219.824.682.682,0,0,0,.535.2H19.8l1.021-2.671h1.106ZM6.443,9.908v2.671H4.936l-.316-.731H3.113l-.316.731H2.019l1.313-3.4H4.437l1.24,3.255V9.178h.267l.049.053H6.88l.754,1.794.036.04.194.452.887-2.325h1.2v3.4h-.7V9.922l-.049.106V9.961L8.57,11.582l-.438,1h-.62Z" transform="translate(-1.01 -8.5)" fill="#fff"/>
        <path id="Trazado_35605" data-name="Trazado 35605" d="M7.24,13.91v.624H8.881v.678H7.24v.731H9.063L9.9,14.92l-.79-1.01Z" transform="translate(0.332 -6.721)" fill="#fff"/>
        <path id="Trazado_35606" data-name="Trazado 35606" d="M13.293,9.949A.285.285,0,0,0,13.16,9.6a.715.715,0,0,0-.352-.053H11.92v.771h.887a.715.715,0,0,0,.352-.053.422.422,0,0,0,.134-.345Z" transform="translate(1.341 -8.155)" fill="#fff"/>
        <path id="Trazado_35607" data-name="Trazado 35607" d="M17.883,9.45l-.523,1.355h1.021Z" transform="translate(2.513 -8.188)" fill="#fff"/>
        <path id="Trazado_35608" data-name="Trazado 35608" d="M11.355,16.414V13.65L10.2,15.005Z" transform="translate(0.969 -6.808)" fill="#fff"/>
        <path id="Trazado_35609" data-name="Trazado 35609" d="M13.192,14.338a.461.461,0,0,0-.486-.438H11.77v.877h.972a.406.406,0,0,0,.45-.438Z" transform="translate(1.308 -6.725)" fill="#fff"/>
        <path id="Trazado_35610" data-name="Trazado 35610" d="M15.71,14.674a.422.422,0,0,0,.134-.345.285.285,0,0,0-.134-.345.715.715,0,0,0-.352-.053H14.47V14.7h.887a.715.715,0,0,0,.352-.053Z" transform="translate(1.891 -6.714)" fill="#fff"/>
        <path id="Trazado_35611" data-name="Trazado 35611" d="M27.846,16.115v-.093a1.937,1.937,0,0,0-.219-.917V12.926h-1.86a1.571,1.571,0,0,0-.644.12l-.061-.066c-.085.053-.134.093-.182.093V12.78H22.838a1.3,1.3,0,0,0-.887.292V12.78H18.317v.292a1.627,1.627,0,0,0-.972-.292H14.95v.292a1.59,1.59,0,0,0-1.021-.292H11.268l-.62.731-.571-.731H9.59l.134.146H6.09v4.757h3.9l.644-.7.559.7h2.443v-.531l.049.053V16.58h.219a2.477,2.477,0,0,0,1.021-.146v1.315h1.993V16.487H17q.134,0,.134.146v1.116h6.041a1.59,1.59,0,0,0,1.021-.292v.292h1.908a1.933,1.933,0,0,0,1.07-.239,1.612,1.612,0,0,0,.681-1.236c0-.04.024-.08.024-.133h0Zm-.7-2.6v.824H25.767a.594.594,0,0,0-.316.053.373.373,0,0,0-.085.239.209.209,0,0,0,.182.239.485.485,0,0,0,.267.053h.571a1.145,1.145,0,0,1,.438.133l-.061-.066a.861.861,0,0,1,.328.213c.049,0,.049.053.049.053a.664.664,0,0,1,.1.213h-.012a1.3,1.3,0,0,1,.085.465,1.031,1.031,0,0,1-.267.731,1.219,1.219,0,0,1-.936.345H24.686v-.731h1.422a.382.382,0,0,0,.316-.093.373.373,0,0,0,.085-.239.417.417,0,0,0-.085-.239.348.348,0,0,0-.267-.093c-.7-.053-1.556,0-1.556-1.063a.959.959,0,0,1,.851-1c.073,0,.134-.013.219-.013h1.458Zm-3.9,3.494H21.817v-.731h1.422a.382.382,0,0,0,.316-.093.373.373,0,0,0,.085-.239.417.417,0,0,0-.085-.239.348.348,0,0,0-.267-.093c-.7-.053-1.556,0-1.556-1.063a.966.966,0,0,1,1.07-1.023H24.26v.824H22.887a.594.594,0,0,0-.316.053c-.1.053-.085.146-.085.239a.239.239,0,0,0,.182.239.485.485,0,0,0,.267.053h.4a1.03,1.03,0,0,1,.839.292,1.06,1.06,0,0,1,.219.731c0,.731-.4,1.063-1.155,1.063Zm-1.908-2.086V15.6H19.642v.678h1.726v.731H18.888V13.564h2.479v.731H19.642v.624h1.689Zm-8.338,2.086H11.535l-.851-1.063h0l-.036-.053-.972,1.116H6.831V13.6H9.712l.936,1.116.024-.027.024.027.936-1.116h2.346a1.107,1.107,0,0,1,1.167.678,2.171,2.171,0,0,1,.024.292c0,.97-.62,1.169-1.288,1.169h-.887v1.262Zm3.245-1.262v1.262h-.754V13.564h1.689a1.643,1.643,0,0,1,.887.146.877.877,0,0,1,.4.771.965.965,0,0,1-.535.917c.061.027.109.053.146.066a.586.586,0,0,1,.255.213c.024.04.036.08.061.12a1.483,1.483,0,0,1,.073.518v.678h-.754v-.438c0-.093,0-.226-.012-.359a.494.494,0,0,0-.122-.319.356.356,0,0,0-.194-.133,2.334,2.334,0,0,0-.328-.013h-.8Z" transform="translate(0.086 -7.093)" fill="#fff"/>
      </g>
    </g>
  </g>
</svg>
