<svg id="auto_recarga" data-name="auto recarga" xmlns="http://www.w3.org/2000/svg" viewBox="0 0 20 20">
  <g id="Grupo_18188" data-name="Grupo 18188">
    <rect id="Rectángulo_2395" data-name="Rectángulo 2395" width="20" height="20" fill="#abadc4" opacity="0"/>
    <g id="Grupo_18187" data-name="Grupo 18187">
      <path id="Trazado_34778" data-name="Trazado 34778" d="M9.931,0a9.931,9.931,0,1,0,9.931,9.931A9.932,9.932,0,0,0,9.931,0ZM12.5,13.687,8.834,11.857a1.062,1.062,0,0,1-.587-1.045c-.009-.009.4-4.75.389-4.767a.868.868,0,0,1,1.727,0l.337,4.1,2.72,2.081A.871.871,0,0,1,12.5,13.7Z" fill="#abadc4" fill-rule="evenodd" opacity="0.4"/>
      <path id="Trazado_34779" data-name="Trazado 34779" d="M10.34,3a7.34,7.34,0,1,0,7.34,7.34A7.345,7.345,0,0,0,10.34,3Zm2.565,11.1L9.244,12.266a1.062,1.062,0,0,1-.587-1.045c-.009-.009.4-4.75.389-4.767a.868.868,0,0,1,1.727,0l.337,4.1,2.72,2.081a.871.871,0,0,1-.915,1.468Z" transform="translate(-0.409 -0.409)" fill="#abadc4" fill-rule="evenodd"/>
    </g>
  </g>
</svg>
