<svg id="borrar" xmlns="http://www.w3.org/2000/svg" width="34" height="34" viewBox="0 0 34 34">
  <g id="Grupo_16676" data-name="Grupo 16676">
    <rect id="Rectángulo_2322" data-name="Rectángulo 2322" width="34" height="34" fill="#8f979f" opacity="0"/>
    <path id="Icon_awesome-backspace" data-name="Icon awesome-backspace" d="M30.38,6.96H11a3.345,3.345,0,0,0-2.37.98L.76,15.81a1.672,1.672,0,0,0,0,2.36h0l7.87,7.88a3.345,3.345,0,0,0,2.37.98H30.38a3.35,3.35,0,0,0,3.35-3.35V10.29a3.35,3.35,0,0,0-3.35-3.35ZM25.95,20.24a.827.827,0,0,1,0,1.18h0L24.77,22.6a.827.827,0,0,1-1.18,0h0l-3.24-3.25-3.24,3.24a.827.827,0,0,1-1.18,0h0l-1.18-1.18a.827.827,0,0,1,0-1.18h0l3.24-3.24-3.24-3.24a.827.827,0,0,1,0-1.18h0l1.18-1.18a.827.827,0,0,1,1.18,0h0l3.24,3.24,3.24-3.24a.827.827,0,0,1,1.18,0h0l1.18,1.18a.827.827,0,0,1,0,1.18h0l-3.24,3.24,3.24,3.24Z" fill="#5f6368"/>
  </g>
</svg>
