<svg xmlns="http://www.w3.org/2000/svg" width="23" height="23.01" viewBox="0 0 23 23.01">
  <g id="recientes" transform="translate(0 0.01)">
    <g id="Grupo_16679" data-name="Grupo 16679">
      <rect id="Rectángulo_2324" data-name="Rectángulo 2324" width="23" height="23" fill="#8f979f" opacity="0"/>
      <path id="Trazado_34045" data-name="Trazado 34045" d="M14.29,22.55a8.781,8.781,0,0,1-3.9-1.19,25.05,25.05,0,0,1-8.94-9.09A8.871,8.871,0,0,1,4.63.79,2.893,2.893,0,0,1,5.4.5C6.98.11,8.66,2.46,9.34,4.08a2.157,2.157,0,0,1-.38,2.68c-2.08,2.22-2.05,2.29-.17,4.79a14.572,14.572,0,0,0,4.12,3.62,1.7,1.7,0,0,0,2.48-.32c.72-.79,1.44-2.09,2.7-1.58a8.557,8.557,0,0,1,4.14,2.97,1.773,1.773,0,0,1-.08,2.06c-2,2.36-4.32,4.21-7.86,4.26Z" fill="#abadc4"/>
      <path id="Trazado_10288" data-name="Trazado 10288" d="M15.75,0V1.68h4.37L12.15,9.65l1.19,1.19,7.97-7.97V7.24h1.68V-.01H15.74Z" fill="#8ab934"/>
    </g>
  </g>
</svg>
