<svg id="seleccionar_operador" data-name="seleccionar operador" xmlns="http://www.w3.org/2000/svg" width="30" height="30" viewBox="0 0 30 30">
  <g id="Grupo_16713" data-name="Grupo 16713">
    <rect id="Rectángulo_2341" data-name="Rectángulo 2341" width="30" height="30" fill="#c5c5c5" opacity="0"/>
    <path id="Trazado_175" data-name="Trazado 175" d="M15,.5c7.08,0,10.82.76,12.72,3.78C29.1,6.47,29.5,9.86,29.5,15c0,6.53-.65,10.23-3.12,12.25C24.23,29.01,20.69,29.5,15,29.5s-8.88-.45-11.06-2.01C1.2,25.53.5,21.81.5,15,.5,9.68.93,6.24,2.43,4.06,4.37,1.22,8.1.5,15,.5Z" fill="#c5c5c5" opacity="0.4"/>
    <g id="Grupo_16712" data-name="Grupo 16712">
      <path id="Trazado_178" data-name="Trazado 178" d="M25.57,11.7a10.545,10.545,0,0,0-3.6-7.29.659.659,0,0,0-.87.99,9.3,9.3,0,0,1,.87,13.13h0a.658.658,0,1,0,.97.89s.02-.02.02-.03a10.592,10.592,0,0,0,2.61-7.7" fill="#bcbcbc"/>
      <path id="Trazado_179" data-name="Trazado 179" d="M19.35,7.39a.658.658,0,1,0-.89.97s.02.02.03.02a5.335,5.335,0,0,1,.5,7.53.663.663,0,0,0,1,.87,6.659,6.659,0,0,0-.62-9.39h0" fill="#bcbcbc"/>
      <path id="Trazado_180" data-name="Trazado 180" d="M8.9,5.4a.659.659,0,0,0-.87-.99,10.633,10.633,0,0,0-.99,15,.661.661,0,1,0,1.02-.84.144.144,0,0,0-.02-.03A9.327,9.327,0,0,1,8.91,5.4" fill="#bcbcbc"/>
      <path id="Trazado_181" data-name="Trazado 181" d="M10.65,7.39a6.651,6.651,0,0,0-.62,9.39h0a.661.661,0,0,0,1.02-.84.144.144,0,0,0-.02-.03,5.335,5.335,0,0,1,.5-7.53.661.661,0,1,0-.84-1.02.144.144,0,0,0-.03.02" fill="#bcbcbc"/>
      <path id="Trazado_182" data-name="Trazado 182" d="M17.54,18.38a1.963,1.963,0,0,0-1.69-1.7,7.741,7.741,0,0,0-1.8,0,1.984,1.984,0,0,0-1.69,1.7c-.22,1.26-.41,3.17-.54,4.55a2.389,2.389,0,0,0,1.89,2.73,8.518,8.518,0,0,0,2.47,0,2.382,2.382,0,0,0,1.89-2.73c-.13-1.38-.32-3.29-.54-4.55m-1.56,5.98a7.042,7.042,0,0,1-2.05,0,1.1,1.1,0,0,1-.78-1.31c.12-1.36.32-3.23.52-4.44.02-.13.13-.57.54-.62a7.419,7.419,0,0,1,1.49,0c.41.05.52.48.54.62.21,1.21.4,3.09.52,4.45a1.116,1.116,0,0,1-.78,1.31" fill="#bcbcbc"/>
      <path id="Trazado_183" data-name="Trazado 183" d="M14.95,15.35a2.94,2.94,0,1,0-2.94-2.94h0a2.951,2.951,0,0,0,2.94,2.94m0-4.55a1.615,1.615,0,1,1-1.61,1.62h0a1.62,1.62,0,0,1,1.62-1.62" fill="#bcbcbc"/>
    </g>
  </g>
</svg>
