<svg id="operador" xmlns="http://www.w3.org/2000/svg" xmlns:xlink="http://www.w3.org/1999/xlink" width="16" height="16" viewBox="0 0 16 16">
  <defs>
    <clipPath id="clip-path">
      <rect id="Rectángulo_2349" data-name="Rectángulo 2349" width="16" height="16" fill="none" opacity="0"/>
    </clipPath>
  </defs>
  <g id="Grupo_16731" data-name="Grupo 16731" clip-path="url(#clip-path)">
    <g id="Grupo_162" data-name="Grupo 162">
      <path id="Trazado_178" data-name="Trazado 178" d="M15.69,5.6A7.637,7.637,0,0,0,13.07.3a.5.5,0,0,0-.68.04.5.5,0,0,0,.04.68,6.762,6.762,0,0,1,.63,9.55h0a.481.481,0,0,0,.71.65l.02-.02a7.712,7.712,0,0,0,1.9-5.6" fill="#5f6368"/>
      <path id="Trazado_179" data-name="Trazado 179" d="M11.17,2.47a.481.481,0,0,0-.65.71l.02.02a3.879,3.879,0,0,1,.36,5.48.482.482,0,0,0,.72.64,4.842,4.842,0,0,0-.45-6.83h0" fill="#5f6368"/>
      <path id="Trazado_180" data-name="Trazado 180" d="M3.56,1.02A.477.477,0,0,0,3.58.34.471.471,0,0,0,2.92.3a7.732,7.732,0,0,0-.71,10.9.483.483,0,1,0,.74-.62l-.02-.02a6.76,6.76,0,0,1,.63-9.54" fill="#5f6368"/>
      <path id="Trazado_181" data-name="Trazado 181" d="M4.83,2.47A4.842,4.842,0,0,0,4.38,9.3h0a.483.483,0,1,0,.74-.62L5.1,8.66a3.89,3.89,0,0,1,.36-5.48.487.487,0,0,0,.06-.68.478.478,0,0,0-.68-.06l-.02.02" fill="#5f6368"/>
      <path id="Trazado_182" data-name="Trazado 182" d="M9.84,10.46A1.432,1.432,0,0,0,8.61,9.22a5.739,5.739,0,0,0-1.31,0,1.432,1.432,0,0,0-1.23,1.24c-.16.91-.3,2.3-.39,3.31a1.741,1.741,0,0,0,1.38,1.99,5.967,5.967,0,0,0,1.79,0,1.741,1.741,0,0,0,1.38-1.99c-.09-1-.23-2.39-.39-3.31M8.7,14.81a4.655,4.655,0,0,1-1.49,0,.811.811,0,0,1-.57-.95c.09-.99.23-2.35.38-3.23.02-.1.09-.41.39-.45a4.875,4.875,0,0,1,1.08,0,.494.494,0,0,1,.39.45c.15.88.29,2.25.38,3.23a.806.806,0,0,1-.57.95" fill="#5f6368"/>
      <path id="Trazado_183" data-name="Trazado 183" d="M7.96,8.26A2.14,2.14,0,1,0,5.82,6.12h0A2.134,2.134,0,0,0,7.96,8.25m0-3.31A1.175,1.175,0,1,1,6.79,6.12h0A1.182,1.182,0,0,1,7.97,4.94" fill="#5f6368"/>
    </g>
  </g>
</svg>
