<svg id="carrito" xmlns="http://www.w3.org/2000/svg" width="28" height="28" viewBox="0 0 28 28">
  <g id="Grupo_16648" data-name="Grupo 16648">
    <rect id="Rectángulo_2305" data-name="Rectángulo 2305" width="28" height="28" fill="#e3f4c9" opacity="0"/>
    <g id="Grupo_16647" data-name="Grupo 16647">
      <path id="Trazado_34002" data-name="Trazado 34002" d="M26.02,9.66a.94.94,0,0,0-1.13.69l-1.17,4.83a2.946,2.946,0,0,1-2.88,2.26H12.93a2.944,2.944,0,0,1-2.88-2.28L7.45,4.1A4.774,4.774,0,0,0,2.77.37H2.2a.93.93,0,1,0,0,1.86h.57A2.944,2.944,0,0,1,5.65,4.51l2.6,11.06a4.806,4.806,0,0,0,4.7,3.72h7.91a4.806,4.806,0,0,0,4.69-3.69l1.17-4.83a.94.94,0,0,0-.69-1.13Z" fill="#e3f4c9"/>
      <path id="Trazado_34003" data-name="Trazado 34003" d="M11.32,20.37A3.63,3.63,0,1,0,14.95,24a3.636,3.636,0,0,0-3.63-3.63Zm0,5.39A1.76,1.76,0,1,1,13.08,24,1.763,1.763,0,0,1,11.32,25.76Z" fill="#e3f4c9"/>
      <path id="Trazado_34004" data-name="Trazado 34004" d="M22.99,20.37A3.63,3.63,0,1,0,26.62,24a3.636,3.636,0,0,0-3.63-3.63Zm0,5.39A1.76,1.76,0,1,1,24.75,24,1.763,1.763,0,0,1,22.99,25.76Z" fill="#e3f4c9"/>
    </g>
  </g>
</svg>
