<svg id="efectivo" xmlns="http://www.w3.org/2000/svg" width="24" height="24" viewBox="0 0 24 24">
  <g id="Grupo_19155" data-name="Grupo 19155">
    <rect id="Rectángulo_2569" data-name="Rectángulo 2569" width="24" height="24" fill="#263645" opacity="0"/>
    <g id="Grupo_19154" data-name="Grupo 19154" transform="translate(0 1.08)">
      <path id="Trazado_35749" data-name="Trazado 35749" d="M12,17.436c-3.984,0-6.756-.1-8.5-.192A3.423,3.423,0,0,1,.216,14.16C.1,12.984,0,11.34,0,9.168S.1,5.352.216,4.176A3.432,3.432,0,0,1,3.5,1.092C5.232,1,8.016.9,12,.9s6.756.1,8.5.192a3.423,3.423,0,0,1,3.288,3.084C23.9,5.352,24,7,24,9.168s-.1,3.816-.216,4.992A3.432,3.432,0,0,1,20.5,17.244C18.768,17.34,15.984,17.436,12,17.436Z" transform="translate(0 -0.9)" fill="#263645" opacity="0.4"/>
      <path id="Trazado_35750" data-name="Trazado 35750" d="M4.516,17.948a.794.794,0,0,1,1.056-.4,1.981,1.981,0,0,0,.72.168c1.128.06,2.712.108,4.812.108s3.684-.048,4.812-.108a1.981,1.981,0,0,0,.72-.168A.8.8,0,1,1,17.3,19a3.608,3.608,0,0,1-1.308.312c-1.152.06-2.772.108-4.9.108s-3.744-.048-4.9-.108A3.731,3.731,0,0,1,4.888,19a.794.794,0,0,1-.4-1.056Z" transform="translate(0.884 2.416)" fill="#263645" fill-rule="evenodd"/>
      <path id="Trazado_35751" data-name="Trazado 35751" d="M2.571,15.411a.8.8,0,0,1,1.1-.24,1.984,1.984,0,0,0,.972.312c1.476.084,3.72.156,6.864.156s5.388-.084,6.864-.156a1.984,1.984,0,0,0,.972-.312.8.8,0,0,1,.864,1.344,3.563,3.563,0,0,1-1.752.564c-1.5.084-3.78.168-6.948.168s-5.448-.084-6.948-.168a3.524,3.524,0,0,1-1.752-.564.8.8,0,0,1-.24-1.1Z" transform="translate(0.489 1.929)" fill="#263645" fill-rule="evenodd"/>
      <path id="Trazado_35752" data-name="Trazado 35752" d="M11.3,4.344a.8.8,0,0,0-1.608,0V4.86a3.456,3.456,0,0,0-1.116.48,2.129,2.129,0,0,0-1.02,1.752A1.971,1.971,0,0,0,8.631,8.88a5.8,5.8,0,0,0,1.632.5,1.4,1.4,0,0,1,.216.048,3.636,3.636,0,0,1,1.08.324.4.4,0,0,1,.252.384c0,.084-.048.252-.312.432a1.859,1.859,0,0,1-1.02.3,2.912,2.912,0,0,1-1.656-.492.8.8,0,0,0-.972,1.272,4.2,4.2,0,0,0,1.824.744v.492a.8.8,0,1,0,1.608,0v-.516a3.456,3.456,0,0,0,1.116-.48,2.129,2.129,0,0,0,1.02-1.752,1.971,1.971,0,0,0-1.08-1.788,5.8,5.8,0,0,0-1.632-.5,1.4,1.4,0,0,1-.216-.048A3.822,3.822,0,0,1,9.4,7.476a.4.4,0,0,1-.252-.384c0-.084.048-.252.312-.432a1.859,1.859,0,0,1,1.02-.3,2.886,2.886,0,0,1,1.656.492A.8.8,0,0,0,13.251,6.7.816.816,0,0,0,13.1,5.568a3.115,3.115,0,0,0-.756-.42,4.916,4.916,0,0,0-1.068-.324V4.332Z" transform="translate(1.509 -0.372)" fill="#263645" fill-rule="evenodd"/>
      <path id="Trazado_35753" data-name="Trazado 35753" d="M3.958,6.88a1.068,1.068,0,1,0,0,2.136h.528a1.068,1.068,0,1,0,0-2.136H3.958Z" transform="translate(0.578 0.296)" fill="#263645"/>
      <path id="Trazado_35754" data-name="Trazado 35754" d="M14.89,7.948A1.07,1.07,0,0,1,15.958,6.88h.528a1.068,1.068,0,0,1,0,2.136h-.528A1.07,1.07,0,0,1,14.89,7.948Z" transform="translate(2.978 0.296)" fill="#263645"/>
    </g>
  </g>
</svg>
