<svg id="check" xmlns="http://www.w3.org/2000/svg" width="24" height="24" viewBox="0 0 24 24">
  <g id="Grupo_19163" data-name="Grupo 19163">
    <rect id="Rectángulo_2570" data-name="Rectángulo 2570" width="24" height="24" fill="#263645" opacity="0"/>
    <g id="Grupo_19162" data-name="Grupo 19162">
      <g id="Grupo_19160" data-name="Grupo 19160">
        <path id="Trazado_35755" data-name="Trazado 35755" d="M21,23.78a2.685,2.685,0,0,0,2.72-2.18A58.007,58.007,0,0,0,24,15.51a58.006,58.006,0,0,0-.28-6.09,2.188,2.188,0,0,0-.6-1.27A3.158,3.158,0,0,0,21,7.23c-1.84-.11-4.79-.22-9-.22s-7.16.11-9,.22A2.685,2.685,0,0,0,.28,9.41,58.545,58.545,0,0,0,0,15.51,58.007,58.007,0,0,0,.28,21.6,2.685,2.685,0,0,0,3,23.78c1.72.1,4.39.2,8.14.22l6-.06C18.75,23.9,20.03,23.84,21,23.78Z" fill="#263645" opacity="0.4"/>
        <g id="Grupo_19159" data-name="Grupo 19159">
          <path id="Trazado_35756" data-name="Trazado 35756" d="M13.65,14.13a12.7,12.7,0,0,0,3.15.16c2.12,0,2.97,0,3.31-.23.23-.16.23-.42.23-.85,0-.48,0-.75-.32-.9a11.33,11.33,0,0,0-3.21-.18c-2.4,0-3.17,0-3.42.34a1.269,1.269,0,0,0-.12.74c0,.52,0,.78.38.93Z" fill="#263645"/>
          <path id="Trazado_35757" data-name="Trazado 35757" d="M20.09,16.96a30.131,30.131,0,0,0-5.29-.22,28.374,28.374,0,0,0-4.09.14c-.44.14-.44.41-.44.95,0,.64,0,.9.74,1.01.51.07,2.36.07,3.79.07,2.1,0,4.95,0,5.3-.23.24-.16.24-.42.24-.85s0-.7-.24-.86Z" fill="#263645"/>
        </g>
      </g>
      <g id="Grupo_19161" data-name="Grupo 19161">
        <path id="Trazado_35758" data-name="Trazado 35758" d="M12.41,2.93,5.32,10.02a3.714,3.714,0,0,0-.44.54,3.364,3.364,0,0,0-.46,1.02l-.61,2.27a.921.921,0,0,0,.2.87.942.942,0,0,0,.96.29l2.27-.61a3.5,3.5,0,0,0,.95-.41,4.027,4.027,0,0,0,.61-.48l7.09-7.09L12.41,2.94Z" fill="#263645"/>
        <path id="Trazado_35759" data-name="Trazado 35759" d="M18.06.76A2.376,2.376,0,0,0,14.7.64L13.47,1.87l3.48,3.48,1.23-1.23A2.386,2.386,0,0,0,18.06.76Z" fill="#263645"/>
      </g>
    </g>
  </g>
</svg>
