<svg xmlns="http://www.w3.org/2000/svg" width="24" height="24.003" viewBox="0 0 24 24.003">
  <g id="Courtesy_" data-name="Courtesy " transform="translate(0 0.003)">
    <g id="Grupo_19167" data-name="Grupo 19167">
      <rect id="Rectángulo_2577" data-name="Rectángulo 2577" width="24" height="24" fill="#263645" opacity="0"/>
      <g id="gift--reward-box-social-present-gift-media-rating-bow">
        <path id="Union" d="M14.18,1.34A2.445,2.445,0,0,0,10.9.26,2.5,2.5,0,0,0,9.82,1.34L7.27,6.23,2.02,7.26A2.556,2.556,0,0,0,.67,11.48l3.69,4.08-.69,5.57A2.489,2.489,0,0,0,7.2,23.74L12,21.36l4.8,2.38a2.489,2.489,0,0,0,3.53-2.61l-.69-5.57,3.69-4.08a2.556,2.556,0,0,0-1.35-4.22L16.73,6.23,14.18,1.34Z" fill="#6aa500"/>
        <path id="Trazado_35763" data-name="Trazado 35763" d="M14.02,12.71a6.571,6.571,0,0,0-1.79-.55c-.08-.02-.16-.03-.24-.05a4.309,4.309,0,0,1-1.19-.35.434.434,0,0,1-.27-.42c0-.09.06-.27.35-.47a2.046,2.046,0,0,1,1.11-.32,3.131,3.131,0,0,1,1.81.54.866.866,0,0,0,1.22-.17.9.9,0,0,0-.16-1.23,3.67,3.67,0,0,0-.82-.46,4.8,4.8,0,0,0-1.17-.35V8.34a.88.88,0,1,0-1.76,0V8.9a3.512,3.512,0,0,0-1.22.53,2.359,2.359,0,0,0-1.11,1.92,2.164,2.164,0,0,0,1.19,1.96,6.571,6.571,0,0,0,1.79.55c.08.02.16.03.24.05a4.309,4.309,0,0,1,1.19.35.434.434,0,0,1,.27.42c0,.09-.06.27-.35.47a2.046,2.046,0,0,1-1.11.32,3.153,3.153,0,0,1-1.81-.54.866.866,0,0,0-1.22.17.887.887,0,0,0,.16,1.23,4.709,4.709,0,0,0,1.99.82v.54a.88.88,0,0,0,1.76,0v-.56a3.512,3.512,0,0,0,1.22-.53,2.359,2.359,0,0,0,1.11-1.92,2.164,2.164,0,0,0-1.19-1.96Z" fill="#e3f4c9"/>
      </g>
    </g>
  </g>
</svg>
