<svg id="Atencion_al_cliente" data-name="Atencion al cliente" xmlns="http://www.w3.org/2000/svg" width="30" height="30" viewBox="0 0 30 30">
  <g id="Grupo_16631" data-name="Grupo 16631">
    <path id="Trazado_33972" data-name="Trazado 33972" d="M0,0V30H30V0Z" fill="#263645" opacity="0"/>
    <g id="Grupo_16630" data-name="Grupo 16630" transform="translate(2.38 0.775)">
      <path id="Trazado_33973" data-name="Trazado 33973" d="M27.35,16.63l-2.31-3.22a11.333,11.333,0,0,0-22.66.23,11.153,11.153,0,0,0,4.41,8.88V26.9a1.862,1.862,0,0,0,1.5,1.88,29.426,29.426,0,0,0,5.42.44,29.515,29.515,0,0,0,5.42-.44,1.862,1.862,0,0,0,1.5-1.88V25.16l1.5.19a2.078,2.078,0,0,0,2.33-1.89l.34-4.07a8.134,8.134,0,0,0,2.24-.93,1.253,1.253,0,0,0,.3-1.83ZM12.76,13.78a1.96,1.96,0,1,1,1.96-1.96A1.963,1.963,0,0,1,12.76,13.78Z" transform="translate(-2.38 -0.775)" fill="#263645" fill-rule="evenodd" opacity="0.4"/>
      <path id="Trazado_33974" data-name="Trazado 33974" d="M21.43,19.92a7.766,7.766,0,0,1-6.4-3.23,8.4,8.4,0,0,1-.57-.97,4.159,4.159,0,0,0-.08-7.61V2.05A1.247,1.247,0,0,0,13.33.82a3.956,3.956,0,0,0-1.19,0,1.23,1.23,0,0,0-1.05,1.23V8.1a4.163,4.163,0,0,0,1.25,7.97,9.261,9.261,0,0,0,.92,1.7,9.752,9.752,0,0,0,8.06,4.21h.05a1.031,1.031,0,0,0,.05-2.06Zm-8.67-6.14a1.96,1.96,0,1,1,1.96-1.96A1.963,1.963,0,0,1,12.76,13.78Z" transform="translate(-2.38 -0.775)" fill="#263645"/>
    </g>
  </g>
</svg>
