<svg id="eliminar_contacto" data-name="eliminar contacto" xmlns="http://www.w3.org/2000/svg" width="28" height="28" viewBox="0 0 28 28">
  <g id="Grupo_19143" data-name="Grupo 19143">
    <rect id="Rectángulo_2568" data-name="Rectángulo 2568" width="28" height="28" fill="none" opacity="0"/>
    <g id="Grupo_19142" data-name="Grupo 19142">
      <path id="Trazado_35746" data-name="Trazado 35746" d="M26.54,4.09q-2.925-.105-5.88-.16A3.805,3.805,0,0,0,16.87.18H11.12A3.792,3.792,0,0,0,7.33,3.93q-2.94.06-5.88.16a.935.935,0,0,0,.03,1.87h.03c.56-.02,1.13-.03,1.69-.05a117.262,117.262,0,0,0,.94,16.98,5.442,5.442,0,0,0,4.87,4.68,48.264,48.264,0,0,0,4.84.24c1.64,0,3.39-.09,5.1-.26a5.52,5.52,0,0,0,4.91-4.86c.58-5.14.91-10.79,1.01-16.79.53.02,1.07.03,1.6.05a.936.936,0,0,0,.07-1.87ZM11.12,2.05h5.75A1.92,1.92,0,0,1,18.79,3.9q-4.77-.06-9.59,0A1.92,1.92,0,0,1,11.12,2.05ZM22.01,22.49a3.647,3.647,0,0,1-3.24,3.21,47.825,47.825,0,0,1-9.57.01,3.6,3.6,0,0,1-3.21-3.08A115.994,115.994,0,0,1,5.07,5.85c6.02-.15,12.02-.15,17.93,0-.09,5.95-.42,11.55-.99,16.64Z" fill="#e3f4c9"/>
      <path id="Trazado_35747" data-name="Trazado 35747" d="M10.76,9.54a.928.928,0,0,0-.93.93V21.38a.93.93,0,1,0,1.86,0V10.47a.928.928,0,0,0-.93-.93Z" fill="#e3f4c9"/>
      <path id="Trazado_35748" data-name="Trazado 35748" d="M17.24,22.32a.928.928,0,0,0,.93-.93V10.48a.93.93,0,1,0-1.86,0V21.39A.928.928,0,0,0,17.24,22.32Z" fill="#e3f4c9"/>
    </g>
  </g>
</svg>
