<svg id="eliminar" xmlns="http://www.w3.org/2000/svg" width="20" height="20" viewBox="0 0 20 20">
  <g id="Grupo_16685" data-name="Grupo 16685">
    <rect id="Rectángulo_2329" data-name="Rectángulo 2329" width="20" height="20" fill="#e80349" opacity="0"/>
    <g id="Grupo_16684" data-name="Grupo 16684">
      <path id="Trazado_34049" data-name="Trazado 34049" d="M18.96,2.79c-1.35-.05-2.71-.08-4.08-.11A2.832,2.832,0,0,0,12.05,0H7.94A2.846,2.846,0,0,0,5.11,2.68c-1.36.03-2.72.06-4.08.11a.8.8,0,0,0,.06,1.6l1.07-.03a84.063,84.063,0,0,0,.67,12.01,4.017,4.017,0,0,0,3.59,3.46A33.183,33.183,0,0,0,9.89,20c1.17,0,2.43-.06,3.66-.18a4.083,4.083,0,0,0,3.63-3.59c.41-3.64.65-7.63.72-11.87l1.01.03h.03a.8.8,0,0,0,.03-1.6ZM7.95,1.6h4.11a1.238,1.238,0,0,1,1.22,1.05c-2.17-.03-4.36-.03-6.55,0A1.238,1.238,0,0,1,7.95,1.59ZM15.6,16.05a2.458,2.458,0,0,1-2.2,2.17,33.686,33.686,0,0,1-6.81,0,2.423,2.423,0,0,1-2.17-2.08A83.06,83.06,0,0,1,3.76,4.3c4.21-.1,8.41-.1,12.54,0-.07,4.2-.3,8.15-.71,11.74Z" fill="#e80349"/>
      <path id="Trazado_34050" data-name="Trazado 34050" d="M7.69,6.68a.8.8,0,0,0-.8.8v7.79a.8.8,0,0,0,1.6,0V7.48a.8.8,0,0,0-.8-.8Z" fill="#e80349"/>
      <path id="Trazado_34051" data-name="Trazado 34051" d="M12.31,16.07a.8.8,0,0,0,.8-.8V7.48a.8.8,0,0,0-1.6,0v7.79A.8.8,0,0,0,12.31,16.07Z" fill="#e80349"/>
    </g>
  </g>
</svg>
