<svg id="entrega" xmlns="http://www.w3.org/2000/svg" width="20" height="20" viewBox="0 0 20 20">
  <g id="Grupo_19117" data-name="Grupo 19117">
    <rect id="Rectángulo_2552" data-name="Rectángulo 2552" width="20" height="20" fill="#6aa500" opacity="0"/>
    <g id="Grupo_19116" data-name="Grupo 19116">
      <path id="Trazado_35740" data-name="Trazado 35740" d="M19.62,4.84a7.95,7.95,0,0,0-.46-1.77,4,4,0,0,0-.88-1.35A4.155,4.155,0,0,0,16.93.84,7.4,7.4,0,0,0,15.15.38a20.019,20.019,0,0,0-2.42-.2h0c-.15,0-.3-.01-.46-.01H12.2c-.42-.01-.88-.02-1.41-.02H8.42c-.22,0-.43,0-.62.01H7.76c-.22,0-.43.01-.63.02H7.11a2.008,2.008,0,0,0-.25.01H6.84C6.1.23,5.44.28,4.86.37A7.95,7.95,0,0,0,3.09.83a4,4,0,0,0-1.35.88A4.155,4.155,0,0,0,.86,3.06,7.4,7.4,0,0,0,.4,4.84,36.75,36.75,0,0,0,.16,10,36.834,36.834,0,0,0,.4,15.16a7.95,7.95,0,0,0,.46,1.77,4,4,0,0,0,.88,1.35,4.155,4.155,0,0,0,1.35.88,7.4,7.4,0,0,0,1.78.46,36.75,36.75,0,0,0,5.16.24,36.834,36.834,0,0,0,5.16-.24,7.95,7.95,0,0,0,1.77-.46,4,4,0,0,0,1.35-.88,4.155,4.155,0,0,0,.88-1.35,7.4,7.4,0,0,0,.46-1.78,36.75,36.75,0,0,0,.24-5.16,36.834,36.834,0,0,0-.24-5.16ZM12.2,2.24a12.39,12.39,0,0,1-.07,5.49L10.54,6.14a.664.664,0,0,0-.94,0L7.81,7.93a13.143,13.143,0,0,1-.37-5.76c.02-.22.04-.45.06-.67.1,0,.21,0,.31-.01h.08c.19,0,.38,0,.58-.01h3.06c.2,0,.4,0,.59.01.03.25.07.5.1.76Zm6.1,12.71a6.64,6.64,0,0,1-.38,1.47,2.915,2.915,0,0,1-.59.92,2.806,2.806,0,0,1-.92.59,6.355,6.355,0,0,1-1.47.38,35.171,35.171,0,0,1-4.95.23,35.171,35.171,0,0,1-4.95-.23,6.64,6.64,0,0,1-1.47-.38,2.915,2.915,0,0,1-.92-.59,2.806,2.806,0,0,1-.59-.92,6.355,6.355,0,0,1-.38-1.47A35.171,35.171,0,0,1,1.45,10a35.171,35.171,0,0,1,.23-4.95,6.64,6.64,0,0,1,.38-1.47,2.915,2.915,0,0,1,.59-.92,2.806,2.806,0,0,1,.92-.59,6.355,6.355,0,0,1,1.47-.38c.34-.05.71-.09,1.1-.12-.01.16-.02.32-.04.48-.2,2.38-.41,4.84.89,7.34a.659.659,0,0,0,.49.35h.1a.634.634,0,0,0,.47-.2l2-2,1.84,1.84a.661.661,0,0,0,1.07-.18c1.17-2.47.85-4.85.54-7.15-.02-.17-.05-.35-.07-.52q.825.045,1.5.15a6.64,6.64,0,0,1,1.47.38,2.915,2.915,0,0,1,.92.59,2.806,2.806,0,0,1,.59.92,6.355,6.355,0,0,1,.38,1.47,35.171,35.171,0,0,1,.23,4.95,35.171,35.171,0,0,1-.23,4.95Z" fill="#6aa500"/>
      <path id="Trazado_35741" data-name="Trazado 35741" d="M15.6,12H11.64a.67.67,0,0,0,0,1.34H15.6a.67.67,0,0,0,0-1.34Z" fill="#6aa500"/>
      <path id="Trazado_35742" data-name="Trazado 35742" d="M15.6,14.93H7.73a.67.67,0,0,0,0,1.34H15.6a.67.67,0,0,0,0-1.34Z" fill="#6aa500"/>
    </g>
  </g>
</svg>
