<svg id="teclado" xmlns="http://www.w3.org/2000/svg" width="30" height="30" viewBox="0 0 30 30">
  <g id="Grupo_16709" data-name="Grupo 16709">
    <rect id="Rect치ngulo_2340" data-name="Rect치ngulo 2340" width="30" height="30" fill="#263645" opacity="0"/>
    <path id="Uni칩n_1" data-name="Uni칩n 1" d="M12.66,27.66A2.34,2.34,0,1,1,15,30a2.343,2.343,0,0,1-2.34-2.34Zm8.44-8.44a2.34,2.34,0,1,1,2.34,2.34,2.343,2.343,0,0,1-2.34-2.34Zm-8.44,0A2.34,2.34,0,1,1,15,21.56h0a2.343,2.343,0,0,1-2.34-2.34Zm-8.44,0a2.34,2.34,0,1,1,2.34,2.34h0A2.343,2.343,0,0,1,4.22,19.22Zm16.87-8.44a2.34,2.34,0,1,1,2.34,2.34,2.343,2.343,0,0,1-2.34-2.34Zm-8.44,0a2.34,2.34,0,1,1,2.34,2.34,2.343,2.343,0,0,1-2.34-2.34h0Zm-8.44,0a2.34,2.34,0,1,1,2.34,2.34,2.343,2.343,0,0,1-2.34-2.34ZM21.09,2.34a2.34,2.34,0,1,1,2.34,2.34,2.343,2.343,0,0,1-2.34-2.34Zm-8.44,0a2.34,2.34,0,1,1,2.34,2.34,2.343,2.343,0,0,1-2.34-2.34h0Zm-8.44,0A2.34,2.34,0,1,1,6.55,4.68,2.343,2.343,0,0,1,4.21,2.34Z" fill="#5f6368"/>
  </g>
</svg>
