<svg id="Discover" xmlns="http://www.w3.org/2000/svg" xmlns:xlink="http://www.w3.org/1999/xlink" width="30" height="30" viewBox="0 0 30 30">
  <defs>
    <linearGradient id="linear-gradient" x1="0.892" y1="0.865" x2="0.197" y2="0.115" gradientUnits="objectBoundingBox">
      <stop offset="0" stop-color="#ff9100"/>
      <stop offset="1" stop-color="#ff5f00"/>
    </linearGradient>
  </defs>
  <g id="Grupo_19140" data-name="Grupo 19140">
    <rect id="Rectángulo_2565" data-name="Rectángulo 2565" width="30" height="30" fill="#8f979f" opacity="0"/>
    <g id="g12">
      <g id="g16">
        <path id="path22" d="M2.47,16.19a1.753,1.753,0,0,1-1.28.38H.94V13.39h.25a1.726,1.726,0,0,1,1.28.39,1.646,1.646,0,0,1,.52,1.2,1.668,1.668,0,0,1-.52,1.21Zm-1.1-3.61H0v4.81H1.37a2.5,2.5,0,0,0,1.72-.56,2.411,2.411,0,0,0-1.71-4.26" fill="#201d1c"/>
        <path id="path24" d="M4.39,17.39h.94V12.58H4.39Z" fill="#201d1c"/>
        <path id="path26" d="M7.63,14.42c-.56-.21-.73-.35-.73-.61,0-.3.29-.53.7-.53a1,1,0,0,1,.76.39l.49-.64a2.114,2.114,0,0,0-1.41-.53,1.413,1.413,0,0,0-1.5,1.38c0,.66.3,1,1.18,1.32a5.073,5.073,0,0,1,.65.27.572.572,0,0,1,.28.5.687.687,0,0,1-.73.68,1.091,1.091,0,0,1-1.02-.64l-.61.58a1.881,1.881,0,0,0,1.67.92,1.55,1.55,0,0,0,1.66-1.58c0-.76-.32-1.11-1.38-1.5" fill="#201d1c"/>
        <path id="path28" d="M9.31,14.99a2.493,2.493,0,0,0,2.54,2.51,2.642,2.642,0,0,0,1.18-.28v-1.1a1.5,1.5,0,0,1-1.13.53,1.576,1.576,0,0,1-1.62-1.66,1.6,1.6,0,0,1,1.57-1.65,1.58,1.58,0,0,1,1.18.54v-1.1a2.38,2.38,0,0,0-1.15-.3A2.531,2.531,0,0,0,9.32,15" fill="#201d1c"/>
        <path id="path30" d="M20.46,15.81l-1.28-3.23H18.15l2.04,4.93h.51l2.08-4.93H21.76l-1.3,3.23" fill="#201d1c"/>
        <path id="path32" d="M23.2,17.39h2.66v-.81H24.14v-1.3H25.8v-.81H24.14V13.4h1.72v-.82H23.2v4.81" fill="#201d1c"/>
        <path id="path34" d="M27.7,14.79h-.27V13.33h.29c.58,0,.9.24.9.71s-.32.74-.92.74ZM29.58,14c0-.9-.62-1.42-1.7-1.42H26.49v4.81h.94V15.46h.12l1.3,1.93H30l-1.51-2.03A1.278,1.278,0,0,0,29.59,14" fill="#201d1c"/>
      </g>
      <circle id="Elipse_1958" data-name="Elipse 1958" cx="2.56" cy="2.56" r="2.56" transform="translate(13.33 12.44)" fill="url(#linear-gradient)"/>
    </g>
  </g>
</svg>
