<svg id="editar_contacto" data-name="editar contacto" xmlns="http://www.w3.org/2000/svg" width="28" height="28" viewBox="0 0 28 28">
  <g id="Grupo_18919" data-name="Grupo 18919">
    <rect id="Rectángulo_2472" data-name="Rectángulo 2472" width="28" height="28" fill="#e3f4c9" opacity="0"/>
    <g id="Grupo_18918" data-name="Grupo 18918">
      <path id="Trazado_35580" data-name="Trazado 35580" d="M26.48,1.52A3.828,3.828,0,0,0,23.9.38a3.441,3.441,0,0,0-2.59,1L9.78,12.91a.89.89,0,0,0-.24.42L8.07,18.8a.91.91,0,0,0,.24.9.931.931,0,0,0,.66.27.986.986,0,0,0,.24-.03l5.47-1.47a.983.983,0,0,0,.42-.24L26.63,6.7a3.668,3.668,0,0,0-.14-5.18ZM13.95,16.73l-3.66.99.99-3.66,8.67-8.67,2.68,2.68-8.67,8.67ZM25.3,5.38,23.94,6.74,21.26,4.06,22.62,2.7a1.807,1.807,0,0,1,2.54.14A1.807,1.807,0,0,1,25.3,5.38Z" fill="#e3f4c9"/>
      <path id="Trazado_35581" data-name="Trazado 35581" d="M22.96,14.93a.928.928,0,0,0-.93.93c0,2.41-.12,4.8-.35,7.11a2.725,2.725,0,0,1-2.43,2.43,71.881,71.881,0,0,1-14.22,0A2.725,2.725,0,0,1,2.6,22.97c-.23-2.31-.35-4.7-.35-7.11s.12-4.8.35-7.11A2.725,2.725,0,0,1,5.03,6.32c2.31-.23,4.7-.35,7.11-.35a.93.93,0,1,0,0-1.86,72.976,72.976,0,0,0-7.3.36,4.59,4.59,0,0,0-4.1,4.1,74.194,74.194,0,0,0,0,14.6,4.59,4.59,0,0,0,4.1,4.1,72.681,72.681,0,0,0,7.3.36,72.681,72.681,0,0,0,7.3-.36,4.59,4.59,0,0,0,4.1-4.1,72.681,72.681,0,0,0,.36-7.3.928.928,0,0,0-.93-.93Z" fill="#e3f4c9"/>
    </g>
  </g>
</svg>
