<svg id="Email" xmlns="http://www.w3.org/2000/svg" width="30" height="30" viewBox="0 0 30 30">
  <g id="Grupo_19000" data-name="Grupo 19000">
    <rect id="Rectángulo_2497" data-name="Rectángulo 2497" width="30" height="30" fill="#263645" opacity="0"/>
    <g id="Grupo_18999" data-name="Grupo 18999" transform="translate(1.043 2.087)">
      <g id="Grupo_18998" data-name="Grupo 18998" opacity="0.4">
        <path id="Trazado_35615" data-name="Trazado 35615" d="M14.5,27.426c-4.252,0-8.009-.157-9.887-.313a3.781,3.781,0,0,1-3.5-3.5C.957,21.739.8,18.765.8,14.513s.157-7.226.313-9.1a3.781,3.781,0,0,1,3.5-3.5C6.487,1.757,10.243,1.6,14.5,1.6s8.53.157,10.409.313a3.781,3.781,0,0,1,3.5,3.5c.157,1.878.313,4.852.313,9.1s-.157,7.226-.313,9.1a3.781,3.781,0,0,1-3.5,3.5c-1.878.157-6.157.313-10.409.313Z" transform="translate(-0.8 -1.6)" fill="#263645"/>
      </g>
      <path id="Trazado_35616" data-name="Trazado 35616" d="M14.281,11.029C9.4,11.029,1.368,6.855.937,6.62.885,7.664.846,8.877.82,10.273c2.8,1.357,8.961,4.07,13.461,4.07s11.622-2.961,14.4-4.252q-.039-2.054-.117-3.6a.941.941,0,0,0-.261.117c-.965.522-9.378,4.422-14.009,4.422Z" transform="translate(-0.794 -0.112)" fill="#263645"/>
    </g>
  </g>
</svg>
