<svg id="favorito_gris" data-name="favorito gris" xmlns="http://www.w3.org/2000/svg" width="16" height="16" viewBox="0 0 16 16">
  <g id="Grupo_16681" data-name="Grupo 16681">
    <rect id="Rectángulo_2326" data-name="Rectángulo 2326" width="16" height="16" fill="#8f979f" opacity="0"/>
    <path id="Trazado_34047" data-name="Trazado 34047" d="M15.91,6.1a1.257,1.257,0,0,0-1.01-.86l-3.98-.58L9.14,1.05a1.262,1.262,0,0,0-2.26,0L5.1,4.66l-3.98.58A1.261,1.261,0,0,0,.43,7.39L3.31,10.2l-.68,3.97a1.257,1.257,0,0,0,1.24,1.47,1.261,1.261,0,0,0,.59-.15l3.56-1.87,3.56,1.87a1.259,1.259,0,0,0,1.82-1.33l-.68-3.97L15.6,7.38a1.242,1.242,0,0,0,.32-1.29Z" fill="#8f979f"/>
  </g>
</svg>
