<svg id="editar" xmlns="http://www.w3.org/2000/svg" width="20" height="20" viewBox="0 0 20 20">
  <g id="Grupo_16683" data-name="Grupo 16683">
    <rect id="Rectángulo_2328" data-name="Rectángulo 2328" width="20" height="20" fill="#263645" opacity="0"/>
    <path id="Trazado_34048" data-name="Trazado 34048" d="M18.29,1.6A3.607,3.607,0,0,0,15.84.54a3.24,3.24,0,0,0-2.44.96L2.25,12.77a.716.716,0,0,0-.2.36L.65,18.46a.8.8,0,0,0,.77,1,.511.511,0,0,0,.21-.03l5.31-1.46a.818.818,0,0,0,.36-.21L18.45,6.48a3.46,3.46,0,0,0-.16-4.88ZM6.32,16.48,2.55,17.52l.99-3.78,8.48-8.57,2.77,2.74L6.31,16.49Zm11-11.13L15.93,6.76,13.16,4.02l1.39-1.41a1.593,1.593,0,0,1,1.25-.48,2.07,2.07,0,0,1,1.37.6A1.868,1.868,0,0,1,17.32,5.35Z" fill="#263645"/>
  </g>
</svg>
