<svg id="llamar" xmlns="http://www.w3.org/2000/svg" viewBox="0 0 30 30">
  <g id="Grupo_16675" data-name="Grupo 16675">
    <rect id="Rectángulo_2321" data-name="Rectángulo 2321" width="30" height="30" fill="#fff" opacity="0"/>
    <path id="Trazado_34042" data-name="Trazado 34042" d="M18.64,29.41a11.5,11.5,0,0,1-5.08-1.55A32.81,32.81,0,0,1,1.89,16.01C-.89,11.08,1.13,3.86,6.04,1.03A3.746,3.746,0,0,1,7.05.65C9.11.14,11.3,3.21,12.18,5.32a2.806,2.806,0,0,1-.5,3.49c-2.71,2.9-2.68,2.99-.23,6.24a18.712,18.712,0,0,0,5.38,4.72,2.2,2.2,0,0,0,3.23-.42c.94-1.03,1.87-2.72,3.52-2.06,2.05.83,4.36,2.12,5.4,3.87a2.313,2.313,0,0,1-.1,2.69c-2.61,3.07-5.63,5.49-10.25,5.55Z" fill="#fff"/>
  </g>
</svg>
