<svg xmlns="http://www.w3.org/2000/svg" width="220.196" height="40.969" viewBox="0 0 220.196 40.969">
  <g id="Logo" transform="translate(0.005 0.005)">
    <g id="Grupo_16646" data-name="Grupo 16646" transform="translate(-0.005 -0.005)">
      <g id="Grupo_16645" data-name="Grupo 16645" transform="translate(51.695 12.149)">
        <path id="Trazado_33991" data-name="Trazado 33991" d="M265.744,30.565l-.9-1.972h0l-.717-1.557-3.8-8.273-1.712-3.725a.243.243,0,0,0-.212-.139h-4.662a.229.229,0,0,0-.212.139l-1.712,3.725-3.8,8.273-.693,1.508-.929,2.029h0a.228.228,0,0,0,.212.326h3.863a.223.223,0,0,1,.041-.033,8.549,8.549,0,0,1,11.06-.016.254.254,0,0,0,.147.057h3.806a.228.228,0,0,0,.212-.326Zm-9.683-5.583a12.542,12.542,0,0,0-3,.367l3.008-6.569h0l3.016,6.577a12.408,12.408,0,0,0-3.032-.375Z" transform="translate(-97.257 -14.9)" fill="#8ab934"/>
        <path id="Trazado_33992" data-name="Trazado 33992" d="M138.769,28.593h0l-.717-1.557-3.8-8.273-1.712-3.725a.243.243,0,0,0-.212-.139h-4.662a.229.229,0,0,0-.212.139l-1.712,3.725-3.8,8.273-.693,1.508-.929,2.029h0a.228.228,0,0,0,.212.326H124.4a.223.223,0,0,1,.041-.033,8.549,8.549,0,0,1,11.06-.016.254.254,0,0,0,.147.057h3.806a.228.228,0,0,0,.212-.326l-.9-1.972Zm-8.778-3.611a12.542,12.542,0,0,0-3,.367L130,18.78h0l3.016,6.577a12.408,12.408,0,0,0-3.032-.375Z" transform="translate(-73.941 -14.9)" fill="#263645"/>
        <path id="Trazado_33993" data-name="Trazado 33993" d="M118.488,23.926h0a9.4,9.4,0,0,0-.9-.685,12.207,12.207,0,0,0-3.056-1.532c-.106-.041-.22-.073-.334-.106-.261-.082-.522-.155-.791-.212a12.291,12.291,0,0,0-2.812-.326h0a.228.228,0,0,0-.228.228v3.4a.23.23,0,0,0,.236.228h0a8.347,8.347,0,0,1,3.162.619,4.072,4.072,0,0,1-3.162,1.508h-.236a4.111,4.111,0,0,1-1.948-.628,4,4,0,0,1-.978-.872,4.169,4.169,0,0,1-.937-2.633v-.024a4.068,4.068,0,0,1,.179-1.182,4.122,4.122,0,0,1,.978-1.671,4.061,4.061,0,0,1,2.714-1.255h.236a4.105,4.105,0,0,1,3.415,1.834.462.462,0,0,1,.065.106l2.608-2.616a.236.236,0,0,0,.016-.31,8.093,8.093,0,0,0-2.5-2.005c-.147-.073-.293-.147-.44-.212a7.873,7.873,0,0,0-3.162-.66h-.236a7.883,7.883,0,0,0-5.656,2.624,7.589,7.589,0,0,0-.913,1.239,8,8,0,0,0-.97,2.461,8.09,8.09,0,0,0-.171,1.679,8.438,8.438,0,0,0,.065,1.019,7.985,7.985,0,0,0,.587,2.16,8.193,8.193,0,0,0,.489.962,6.965,6.965,0,0,0,.489.717,7.962,7.962,0,0,0,6.088,3.146h.236a7.884,7.884,0,0,0,3.6-.864,8,8,0,0,0,2.722-2.282c.171-.228.334-.465.489-.717a8.007,8.007,0,0,0,1.084-3.122Z" transform="translate(-70.678 -14.904)" fill="#263645"/>
        <path id="Trazado_33994" data-name="Trazado 33994" d="M246.55,18.547v-3.4a.228.228,0,0,0-.228-.228H235.188a.228.228,0,0,0-.228.228v3.4a.228.228,0,0,0,.228.228h3.4a.228.228,0,0,1,.228.228V30.667a.228.228,0,0,0,.228.228h3.4a.228.228,0,0,0,.228-.228V19a.228.228,0,0,1,.228-.228h3.4a.228.228,0,0,0,.228-.228Z" transform="translate(-95.147 -14.904)" fill="#8ab934"/>
        <path id="Trazado_33995" data-name="Trazado 33995" d="M196.157,14.91h-3.4a.228.228,0,0,0-.228.228V17.8a.234.234,0,0,1-.391.171,12.178,12.178,0,0,0-8.11-3.056,10.79,10.79,0,0,0-1.157.057.23.23,0,0,0-.212.228V30.673a.228.228,0,0,0,.228.228h3.4a.228.228,0,0,0,.228-.228V19.442a.232.232,0,0,1,.3-.22,8.582,8.582,0,0,1,5.819,7.816h0v3.635a.228.228,0,0,0,.228.228h3.268a.228.228,0,0,0,.228-.228V27.038h0v-11.9a.228.228,0,0,0-.228-.228Z" transform="translate(-85.474 -14.902)" fill="#8ab934"/>
        <path id="Trazado_33996" data-name="Trazado 33996" d="M172.761,18.716a8,8,0,0,0-2.315-2.421,1.062,1.062,0,0,1-.122-.082,7.966,7.966,0,0,0-3.953-1.3c-.139,0-.285-.008-.424-.008a8.015,8.015,0,0,0-7.849,6.439,8.217,8.217,0,0,0-.155,1.565v.179l-4.124,3.228a3.475,3.475,0,0,1-1.092.595,4.05,4.05,0,0,1-1.3.212,4.17,4.17,0,0,1-4.165-4.165,4.109,4.109,0,0,1,.073-.782,4.158,4.158,0,0,1,4.092-3.374h.236a4.183,4.183,0,0,1,2.168.782,4.3,4.3,0,0,1,1.027,1.076.232.232,0,0,0,.359.041l2.413-2.413a.235.235,0,0,0,.016-.31,8.042,8.042,0,0,0-2.347-2.005,7.942,7.942,0,0,0-3.888-1.019,7.2,7.2,0,0,0-1.117.082,7.934,7.934,0,0,0-6.83,7.873,7.863,7.863,0,0,0,1.149,4.108,8.154,8.154,0,0,0,1.019,1.337,7.863,7.863,0,0,0,2.91,1.964l.122.049a7.944,7.944,0,0,0,6.463-.416,6.972,6.972,0,0,0,.929-.6l3.024-2.331s.016.024.024.041a7.99,7.99,0,0,0,6.846,3.863A7.846,7.846,0,0,0,168,30.657a8.023,8.023,0,0,0,4.792-3.594,8.009,8.009,0,0,0,.261-7.8c-.09-.179-.2-.359-.3-.53Zm-5.42,8.085a4.14,4.14,0,0,1-1.394.245,4.079,4.079,0,0,1-2.437-.8,4.144,4.144,0,0,1-1.679-2.91,3.725,3.725,0,0,1-.024-.432,4.146,4.146,0,0,1,4.14-4.14,4.093,4.093,0,0,1,.848.09,3.716,3.716,0,0,1,.587.171,4.135,4.135,0,0,1-.041,7.776Z" transform="translate(-78.224 -14.902)" fill="#8ab934"/>
        <path id="Trazado_33997" data-name="Trazado 33997" d="M81.441,14.926c-.2-.008-.408-.016-.611-.016a12.417,12.417,0,0,0-8.142,3.032.234.234,0,0,1-.3,0,12.417,12.417,0,0,0-8.142-3.032c-.2,0-.408,0-.611.016a.219.219,0,0,0-.212.228v15.51a.228.228,0,0,0,.228.228h3.4a.228.228,0,0,0,.228-.228V19.319a8.719,8.719,0,0,1,2.812,1.744,8.876,8.876,0,0,1,1.687,2.16.871.871,0,0,0,1.54,0A8.5,8.5,0,0,1,75,21.064a8.633,8.633,0,0,1,2.812-1.744V30.665a.228.228,0,0,0,.228.228h3.4a.228.228,0,0,0,.228-.228v-15.5a.225.225,0,0,0-.212-.228Z" transform="translate(-63.42 -14.902)" fill="#263645"/>
        <path id="Trazado_33998" data-name="Trazado 33998" d="M99.732,14.91H88.6a.228.228,0,0,0-.228.228V30.673a.228.228,0,0,0,.228.228H99.732a.228.228,0,0,0,.228-.228v-3.4a.228.228,0,0,0-.228-.228h-7.27a.228.228,0,0,1-.228-.228V25.286a.228.228,0,0,1,.228-.228h6.064a.228.228,0,0,0,.228-.228v-3.4a.228.228,0,0,0-.228-.228H92.462a.228.228,0,0,1-.228-.228V19.042a.228.228,0,0,1,.228-.228h7.27a.228.228,0,0,0,.228-.228v-3.4a.228.228,0,0,0-.228-.228Z" transform="translate(-68.035 -14.902)" fill="#263645"/>
        <path id="Trazado_33999" data-name="Trazado 33999" d="M213.442,14.91H202.308a.228.228,0,0,0-.228.228V30.673a.228.228,0,0,0,.228.228h11.134a.228.228,0,0,0,.228-.228v-3.4a.228.228,0,0,0-.228-.228h-7.27a.228.228,0,0,1-.228-.228V25.286a.228.228,0,0,1,.228-.228h6.064a.228.228,0,0,0,.228-.228v-3.4a.228.228,0,0,0-.228-.228h-6.064a.228.228,0,0,1-.228-.228V19.042a.228.228,0,0,1,.228-.228h7.27a.228.228,0,0,0,.228-.228v-3.4a.228.228,0,0,0-.228-.228Z" transform="translate(-89.066 -14.902)" fill="#8ab934"/>
        <path id="Trazado_34000" data-name="Trazado 34000" d="M224.416,18.773a4.093,4.093,0,0,1,.848.09,3.714,3.714,0,0,1,.587.171,4.216,4.216,0,0,1,2.029,1.614.223.223,0,0,0,.359.041l2.437-2.437a.235.235,0,0,0,.016-.31,8.048,8.048,0,0,0-1.54-1.483c-.114-.082-.236-.171-.35-.245a7.966,7.966,0,0,0-3.953-1.3c-.139,0-.285-.008-.424-.008a8.015,8.015,0,0,0-7.849,6.439,8.216,8.216,0,0,0-.155,1.565,7.99,7.99,0,0,0,.579,3,7.848,7.848,0,0,0,.571,1.141,7.99,7.99,0,0,0,6.846,3.863,7.846,7.846,0,0,0,2.054-.269,7.993,7.993,0,0,0,4.222-2.771.236.236,0,0,0-.016-.31l-2.437-2.437a.232.232,0,0,0-.359.041,4.136,4.136,0,0,1-3.456,1.875,4.079,4.079,0,0,1-2.437-.8,4.144,4.144,0,0,1-1.679-2.91,3.732,3.732,0,0,1-.024-.432,4.146,4.146,0,0,1,4.14-4.14Z" transform="translate(-91.718 -14.902)" fill="#8ab934"/>
      </g>
      <path id="Trazado_34001" data-name="Trazado 34001" d="M20.375,0A20.507,20.507,0,0,0,0,15.778a.167.167,0,0,0,.163.2H4.27a.159.159,0,0,0,.155-.114A16.528,16.528,0,0,1,20.269,3.985a16.333,16.333,0,0,1,15.787,11.7.166.166,0,0,1-.163.212H32.177a.157.157,0,0,1-.147-.106,12.659,12.659,0,1,0,0,9.389.157.157,0,0,1,.147-.106h3.717a.169.169,0,0,1,.163.212,16.57,16.57,0,0,1-15.787,11.7A16.78,16.78,0,0,1,4.425,25.094a.15.15,0,0,0-.155-.114H.162a.167.167,0,0,0-.163.2A20.486,20.486,0,1,0,20.375,0Zm7.335,27.084a.2.2,0,0,1-.2.2H24.622a.2.2,0,0,1-.2-.2V17.718a.2.2,0,0,0-.277-.179,7.447,7.447,0,0,0-2.119,1.369,7.363,7.363,0,0,0-1.907,2.885.2.2,0,0,1-.375,0,7.275,7.275,0,0,0-1.907-2.885,7.407,7.407,0,0,0-2.111-1.369.2.2,0,0,0-.277.179v9.365a.2.2,0,0,1-.2.2H12.363a.2.2,0,0,1-.2-.2v-13.2a.2.2,0,0,1,.187-.2c.171-.008.35-.016.522-.016a10.579,10.579,0,0,1,6.936,2.576.2.2,0,0,0,.261,0,10.579,10.579,0,0,1,6.936-2.576c.171,0,.35,0,.522.016a.191.191,0,0,1,.187.2v13.2Z" transform="translate(0.005 0.005)" fill="#8ab934"/>
    </g>
  </g>
</svg>
