<svg xmlns="http://www.w3.org/2000/svg" width="270.436" height="50.357" viewBox="0 0 270.436 50.357">
  <g id="Logo_blanco" data-name="Logo blanco" transform="translate(0.004 0.003)">
    <g id="Grupo_16650" data-name="Grupo 16650" transform="translate(-0.004 -0.003)">
      <g id="Grupo_16649" data-name="Grupo 16649" transform="translate(63.475 14.917)">
        <path id="Trazado_34005" data-name="Trazado 34005" d="M161.222,27.556l-1.113-2.422h0l-.879-1.92-4.665-10.156-2.1-4.576a.271.271,0,0,0-.251-.161H146.49a.281.281,0,0,0-.251.161l-2.1,4.576-4.665,10.156-.843,1.848-1.148,2.494h0a.275.275,0,0,0,.251.395h4.737s.036-.036.054-.036a10.494,10.494,0,0,1,13.584-.036.319.319,0,0,0,.179.072h4.665a.273.273,0,0,0,.251-.395Zm-11.9-6.855a15.413,15.413,0,0,0-3.679.449l3.7-8.075h0l3.7,8.075a14.978,14.978,0,0,0-3.732-.467Z" transform="translate(45.727 -8.302)" fill="#fff"/>
        <path id="Trazado_34006" data-name="Trazado 34006" d="M89.78,25.124h0L88.9,23.2,84.235,13.047l-2.1-4.576a.271.271,0,0,0-.251-.161H76.16a.281.281,0,0,0-.251.161l-2.1,4.576L69.144,23.2,68.3,25.052l-1.148,2.494h0a.275.275,0,0,0,.251.395h4.737s.036-.036.054-.036a10.494,10.494,0,0,1,13.584-.036.319.319,0,0,0,.179.072h4.665a.273.273,0,0,0,.251-.395l-1.113-2.422ZM79,20.691a15.413,15.413,0,0,0-3.679.449l3.7-8.075h0l3.7,8.075a14.979,14.979,0,0,0-3.732-.467Z" transform="translate(-10.144 -8.31)" fill="#fff"/>
        <path id="Trazado_34007" data-name="Trazado 34007" d="M76.7,19.384h0a12.928,12.928,0,0,0-1.113-.843,15,15,0,0,0-3.75-1.884,3.617,3.617,0,0,0-.413-.126c-.323-.108-.646-.179-.969-.269a14.6,14.6,0,0,0-3.445-.395h0a.283.283,0,0,0-.287.287v4.181a.283.283,0,0,0,.287.287h0a10.379,10.379,0,0,1,3.894.754,5.039,5.039,0,0,1-3.894,1.848h-.287a4.947,4.947,0,0,1-2.387-.772,4.89,4.89,0,0,1-1.2-1.077,4.831,4.831,0,0,1-1.023-2.135,5.53,5.53,0,0,1-.126-1.095V18.11a4.914,4.914,0,0,1,.215-1.453,5.077,5.077,0,0,1,4.54-3.589h.305a5.088,5.088,0,0,1,4.2,2.243c.036.036.054.09.09.126l3.194-3.212a.278.278,0,0,0,.018-.377,9.983,9.983,0,0,0-3.068-2.458c-.179-.09-.359-.179-.538-.251a9.692,9.692,0,0,0-3.894-.807h-.287a9.691,9.691,0,0,0-6.944,3.212,8.612,8.612,0,0,0-1.13,1.525A9.361,9.361,0,0,0,57.5,16.082a10.361,10.361,0,0,0-.144,3.32,10.006,10.006,0,0,0,.718,2.656,9.213,9.213,0,0,0,.61,1.184,9.42,9.42,0,0,0,.592.879,9.208,9.208,0,0,0,1.7,1.741,9.647,9.647,0,0,0,5.778,2.117h.287a9.7,9.7,0,0,0,7.77-3.858,9.421,9.421,0,0,0,.592-.879,10,10,0,0,0,1.328-3.822Z" transform="translate(-17.965 -8.294)" fill="#fff"/>
        <path id="Trazado_34008" data-name="Trazado 34008" d="M145.318,12.788V8.607a.283.283,0,0,0-.287-.287H131.357a.283.283,0,0,0-.287.287v4.181a.283.283,0,0,0,.287.287h4.181a.283.283,0,0,1,.287.287V27.7a.283.283,0,0,0,.287.287h4.181a.283.283,0,0,0,.287-.287V13.362a.283.283,0,0,1,.287-.287h4.181a.283.283,0,0,0,.287-.287Z" transform="translate(40.655 -8.302)" fill="#fff"/>
        <path id="Trazado_34009" data-name="Trazado 34009" d="M118.48,8.32H114.3a.283.283,0,0,0-.287.287v3.266a.291.291,0,0,1-.484.215A14.879,14.879,0,0,0,106.6,8.643a15.382,15.382,0,0,0-3.033-.305,12.293,12.293,0,0,0-1.418.072.277.277,0,0,0-.251.287v19a.283.283,0,0,0,.287.287h4.181a.283.283,0,0,0,.287-.287V13.9a.282.282,0,0,1,.377-.269,10.55,10.55,0,0,1,7.16,9.6h0V27.7a.283.283,0,0,0,.287.287H118.5a.283.283,0,0,0,.287-.287V23.232h0V8.625a.283.283,0,0,0-.287-.287Z" transform="translate(17.482 -8.302)" fill="#fff"/>
        <path id="Trazado_34010" data-name="Trazado 34010" d="M116.008,12.985a9.977,9.977,0,0,0-2.835-2.979.63.63,0,0,0-.144-.09,9.851,9.851,0,0,0-4.863-1.6h-.52a9.836,9.836,0,0,0-8.416,4.737,9.682,9.682,0,0,0-1.4,5.078v.215l-5.06,3.966a4.485,4.485,0,0,1-1.346.736,5.219,5.219,0,0,1-1.6.251,5.124,5.124,0,0,1-5.114-5.114,5.9,5.9,0,0,1,.09-.969,5.121,5.121,0,0,1,1.992-3.158,5.068,5.068,0,0,1,3.033-.987h.305a5.078,5.078,0,0,1,2.656.969,4.921,4.921,0,0,1,1.256,1.328.289.289,0,0,0,.449.054l2.961-2.961a.278.278,0,0,0,.018-.377A9.539,9.539,0,0,0,94.583,9.63,9.809,9.809,0,0,0,89.81,8.374a11.654,11.654,0,0,0-1.382.09,9.6,9.6,0,0,0-4.522,1.884,10.046,10.046,0,0,0-2.476,2.745,9.634,9.634,0,0,0-1.4,5.042,9.655,9.655,0,0,0,1.4,5.06,8.594,8.594,0,0,0,1.256,1.633,9.526,9.526,0,0,0,3.571,2.4,1.236,1.236,0,0,1,.144.054,9.711,9.711,0,0,0,3.391.61,9.614,9.614,0,0,0,4.54-1.13,7.906,7.906,0,0,0,1.148-.754l3.714-2.871a.258.258,0,0,0,.036.054,9.811,9.811,0,0,0,5.9,4.414,9.505,9.505,0,0,0,2.494.323,9.642,9.642,0,0,0,2.512-.323,9.819,9.819,0,0,0,6.209-14c-.108-.215-.233-.449-.359-.646Zm-6.657,9.923a4.944,4.944,0,0,1-1.7.305,5.074,5.074,0,0,1-5.06-4.54c0-.179-.018-.359-.018-.52a5.085,5.085,0,0,1,5.078-5.078,5,5,0,0,1,1.041.108,4.742,4.742,0,0,1,.718.215,5.087,5.087,0,0,1,2.943,2.835,4.886,4.886,0,0,1,.377,1.92,5.094,5.094,0,0,1-3.373,4.791Z" transform="translate(0.108 -8.302)" fill="#fff"/>
        <path id="Trazado_34011" data-name="Trazado 34011" d="M57.513,8.338c-.251,0-.5-.018-.754-.018a14.979,14.979,0,0,0-3.732.467,15.2,15.2,0,0,0-6.262,3.266.3.3,0,0,1-.377,0A15.292,15.292,0,0,0,36.393,8.32c-.251,0-.5,0-.754.018a.292.292,0,0,0-.269.287V27.682a.283.283,0,0,0,.287.287h4.181a.283.283,0,0,0,.287-.287V13.739a10.491,10.491,0,0,1,5.509,4.791,1.071,1.071,0,0,0,1.9,0,10.491,10.491,0,0,1,5.509-4.791V27.682a.283.283,0,0,0,.287.287h4.181a.283.283,0,0,0,.287-.287V8.625a.291.291,0,0,0-.269-.287Z" transform="translate(-35.37 -8.302)" fill="#fff"/>
        <path id="Trazado_34012" data-name="Trazado 34012" d="M63.25,8.328H49.577a.283.283,0,0,0-.287.287V27.69a.283.283,0,0,0,.287.287H63.25a.283.283,0,0,0,.287-.287V23.509a.283.283,0,0,0-.287-.287H54.332a.283.283,0,0,1-.287-.287V21.05a.283.283,0,0,1,.287-.287h7.447a.283.283,0,0,0,.287-.287V16.3a.283.283,0,0,0-.287-.287H54.332a.283.283,0,0,1-.287-.287V13.352a.283.283,0,0,1,.287-.287H63.25a.283.283,0,0,0,.287-.287V8.6a.283.283,0,0,0-.287-.287Z" transform="translate(-24.312 -8.31)" fill="#fff"/>
        <path id="Trazado_34013" data-name="Trazado 34013" d="M126.69,8.328H113.017a.283.283,0,0,0-.287.287V27.69a.283.283,0,0,0,.287.287H126.69a.283.283,0,0,0,.287-.287V23.509a.283.283,0,0,0-.287-.287h-8.918a.283.283,0,0,1-.287-.287V21.05a.283.283,0,0,1,.287-.287h7.447a.283.283,0,0,0,.287-.287V16.3a.283.283,0,0,0-.287-.287h-7.447a.283.283,0,0,1-.287-.287V13.352a.283.283,0,0,1,.287-.287h8.918a.283.283,0,0,0,.287-.287V8.6a.283.283,0,0,0-.287-.287Z" transform="translate(26.085 -8.31)" fill="#fff"/>
        <path id="Trazado_34014" data-name="Trazado 34014" d="M130.537,13.057a5,5,0,0,1,1.041.108,4.742,4.742,0,0,1,.718.215,5.056,5.056,0,0,1,2.494,1.992.289.289,0,0,0,.449.054l3-3a.278.278,0,0,0,.018-.377,10.115,10.115,0,0,0-1.884-1.83c-.144-.108-.287-.215-.431-.305a9.851,9.851,0,0,0-4.863-1.6h-.52a9.836,9.836,0,0,0-8.416,4.737,9.859,9.859,0,0,0-.682,8.757,10.186,10.186,0,0,0,.7,1.4,9.811,9.811,0,0,0,5.9,4.414,9.505,9.505,0,0,0,2.494.323,9.642,9.642,0,0,0,2.512-.323,9.774,9.774,0,0,0,5.186-3.409.3.3,0,0,0-.018-.377l-3-3a.291.291,0,0,0-.449.054,5.1,5.1,0,0,1-2.53,2.01,4.943,4.943,0,0,1-1.7.305,5.074,5.074,0,0,1-5.06-4.54c0-.179-.018-.359-.018-.52a5.085,5.085,0,0,1,5.078-5.078Z" transform="translate(32.449 -8.302)" fill="#fff"/>
      </g>
      <path id="Trazado_34015" data-name="Trazado 34015" d="M25.035,0A25.185,25.185,0,0,0,0,19.382a.2.2,0,0,0,.2.251H5.243s.161-.054.2-.144A20.3,20.3,0,0,1,24.892,4.9a20.07,20.07,0,0,1,19.4,14.373.211.211,0,0,1-.2.269H39.534s-.161-.054-.179-.126A15.6,15.6,0,0,0,23.923,9.656a15.546,15.546,0,0,0,.969,31.061,15.445,15.445,0,0,0,8.9-2.8,15.668,15.668,0,0,0,5.545-6.98.216.216,0,0,1,.179-.126h4.558a.2.2,0,0,1,.2.269,20.347,20.347,0,0,1-19.4,14.373A20.581,20.581,0,0,1,5.422,30.866a.194.194,0,0,0-.2-.144H.2a.2.2,0,0,0-.2.251A25.169,25.169,0,1,0,25.035,0Zm9.008,33.268a.257.257,0,0,1-.251.251H30.239a.257.257,0,0,1-.251-.251v-11.5a.237.237,0,0,0-.341-.215,8.964,8.964,0,0,0-4.935,5.222.237.237,0,0,1-.449,0,8.9,8.9,0,0,0-2.333-3.535,9.018,9.018,0,0,0-2.6-1.687.244.244,0,0,0-.341.215v11.5a.257.257,0,0,1-.251.251H15.184a.257.257,0,0,1-.251-.251V17.049a.253.253,0,0,1,.233-.251c.215,0,.431-.018.646-.018a12.325,12.325,0,0,1,3.176.395,12.879,12.879,0,0,1,5.329,2.781.269.269,0,0,0,.323,0,12.99,12.99,0,0,1,5.329-2.781,13.274,13.274,0,0,1,3.176-.395c.215,0,.431,0,.646.018a.242.242,0,0,1,.233.251V33.271Z" transform="translate(0.004 0.003)" fill="#fff"/>
    </g>
  </g>
</svg>
