<svg id="salir" xmlns="http://www.w3.org/2000/svg" width="25" height="25" viewBox="0 0 25 25">
  <g id="Grupo_19137" data-name="Grupo 19137">
    <rect id="Rectángulo_2562" data-name="Rectángulo 2562" width="25" height="25" fill="#263645" opacity="0"/>
    <g id="Grupo_19136" data-name="Grupo 19136">
      <path id="Trazado_175" data-name="Trazado 175" d="M9.1,1.25c4.18,0,6.39.59,7.51,2.93.81,1.7,1.05,4.33,1.05,8.32,0,5.07-.38,7.93-1.84,9.5-1.27,1.37-3.36,1.75-6.72,1.75s-5.24-.35-6.53-1.56C.95,20.67.54,17.78.54,12.5c0-4.13.25-6.8,1.14-8.49C2.82,1.81,5.03,1.25,9.1,1.25Z" fill="#263645" opacity="0.4"/>
      <path id="Trazado_35745" data-name="Trazado 35745" d="M24.15,11.3a1.355,1.355,0,0,1,.01,1.71,29.175,29.175,0,0,1-5.29,5.06,1.225,1.225,0,0,1-1.96-.88c-.08-.67-.17-1.48-.23-2.41-4.03-.1-7.22-.37-8.16-.5a1.072,1.072,0,0,1-.81-.53,3.673,3.673,0,0,1-.43-1.71A3.787,3.787,0,0,1,7.7,10.3a1,1,0,0,1,.77-.51,80.316,80.316,0,0,1,8.18-.38c.05-.92.12-1.73.2-2.39a1.2,1.2,0,0,1,1.95-.85,30.313,30.313,0,0,1,5.36,5.13Z" fill="#263645"/>
    </g>
  </g>
</svg>
