<svg id="Cesta" xmlns="http://www.w3.org/2000/svg" width="35" height="35" viewBox="0 0 35 35">
  <g id="Grupo_16635" data-name="Grupo 16635" transform="translate(0)">
    <rect id="Rectángulo_2300" data-name="Rectángulo 2300" width="35" height="35" fill="#263645" opacity="0"/>
    <g id="Grupo_16634" data-name="Grupo 16634" transform="translate(0 0.012)">
      <path id="Trazado_33977" data-name="Trazado 33977" d="M11.052,1.33A4.1,4.1,0,0,0,7.47,3.372a59.71,59.71,0,0,0-3.6,7.362c.688,0,1.528-.023,2.532-.023A57.416,57.416,0,0,1,9.488,4.538a1.793,1.793,0,0,1,1.563-.875h2.193a1.167,1.167,0,1,0,0-2.333H11.052ZM26.79,3.372a59.709,59.709,0,0,1,3.6,7.362c-.688,0-1.528-.023-2.532-.023a57.416,57.416,0,0,0-3.092-6.172,1.793,1.793,0,0,0-1.563-.875H21.015a1.167,1.167,0,0,1,0-2.333h2.193A4.1,4.1,0,0,1,26.79,3.372ZM17.13,17.663c-7.525,0-12.087-.058-14.187-.082a4.088,4.088,0,0,1-.723-.07c.07.677.175,1.458.28,2.333.373,2.858.98,6.662,1.867,10.407A5.341,5.341,0,0,0,9.01,34.347a78.1,78.1,0,0,0,8.12.432,78.1,78.1,0,0,0,8.12-.432,5.341,5.341,0,0,0,4.643-4.095A103.026,103.026,0,0,0,31.76,19.845c.117-.875.21-1.657.28-2.333a4.088,4.088,0,0,1-.723.07C29.217,17.617,24.655,17.663,17.13,17.663Z" transform="translate(0.37 0.21)" fill="#263645" fill-rule="evenodd" opacity="0.4"/>
      <path id="Trazado_33978" data-name="Trazado 33978" d="M17.5,16.33c-7.525,0-12.087-.058-14.187-.082a3.107,3.107,0,0,1-3.15-2.1,5.4,5.4,0,0,1,0-2.637,3.121,3.121,0,0,1,3.15-2.1c2.1-.035,6.662-.082,14.187-.082s12.087.058,14.187.082a3.107,3.107,0,0,1,3.15,2.1,5.4,5.4,0,0,1,0,2.637,3.121,3.121,0,0,1-3.15,2.1C29.587,16.283,25.025,16.33,17.5,16.33Z" transform="translate(0 1.543)" fill="#263645"/>
      <path id="Trazado_33979" data-name="Trazado 33979" d="M15.723,5.447c1.248,0,2.158-.012,2.777-.035a2.261,2.261,0,0,0,2.263-2.065c.012-.187.023-.385.023-.618a5.078,5.078,0,0,0-.023-.618A2.252,2.252,0,0,0,18.5.045C17.882.022,16.972.01,15.723.01s-2.158.012-2.777.035A2.261,2.261,0,0,0,10.683,2.11c-.012.187-.023.385-.023.618a5.079,5.079,0,0,0,.023.618,2.252,2.252,0,0,0,2.263,2.065C13.565,5.435,14.475,5.447,15.723,5.447Z" transform="translate(1.777 -0.01)" fill="#263645"/>
      <path id="Trazado_33980" data-name="Trazado 33980" d="M9.686,18.671a1.169,1.169,0,0,1,1.307,1.015l.782,6.218a1.17,1.17,0,0,1-2.322.292l-.782-6.218A1.169,1.169,0,0,1,9.686,18.671Z" transform="translate(1.444 3.099)" fill="#263645" fill-rule="evenodd"/>
      <path id="Trazado_33981" data-name="Trazado 33981" d="M20.76,18.671a1.169,1.169,0,0,0-1.307,1.015L18.671,25.9a1.17,1.17,0,0,0,2.322.292l.782-6.218A1.169,1.169,0,0,0,20.76,18.671Z" transform="translate(3.11 3.099)" fill="#263645" fill-rule="evenodd"/>
      <path id="Trazado_33982" data-name="Trazado 33982" d="M15.167,18.67a1.17,1.17,0,0,1,1.167,1.167v6.218a1.167,1.167,0,0,1-2.333,0V19.837A1.17,1.17,0,0,1,15.167,18.67Z" transform="translate(2.333 3.1)" fill="#263645" fill-rule="evenodd"/>
    </g>
  </g>
</svg>
