<svg id="forma_segura" data-name="forma segura" xmlns="http://www.w3.org/2000/svg" width="16" height="16.02" viewBox="0 0 16 16.02">
  <g id="Grupo_16743" data-name="Grupo 16743">
    <rect id="Rectángulo_2356" data-name="Rectángulo 2356" width="16" height="16" fill="#4437cb" opacity="0"/>
    <path id="interface-lock" d="M8,0A4.268,4.268,0,0,0,3.73,4.27V5.58A4,4,0,0,0,1.47,8.74c-.07.61-.11,1.22-.12,1.84a14.212,14.212,0,0,0,.12,1.84,4.022,4.022,0,0,0,3.84,3.55c.86.03,1.74.05,2.69.05s1.83-.02,2.69-.05a4.022,4.022,0,0,0,3.84-3.55c.07-.61.11-1.22.12-1.84a14.212,14.212,0,0,0-.12-1.84,4.042,4.042,0,0,0-2.26-3.16V4.27A4.268,4.268,0,0,0,8,0Zm2.52,5.18V4.27a2.52,2.52,0,0,0-5.04,0h0v.91c.81-.03,1.63-.04,2.52-.04S9.72,5.16,10.52,5.18ZM8,9.02a.871.871,0,0,1,.87.87h0v1.16a.871.871,0,0,1-1.74.06V9.89A.871.871,0,0,1,8,9.02Z" fill="#c5c5c5" fill-rule="evenodd"/>
  </g>
</svg>
