<svg id="paypal" xmlns="http://www.w3.org/2000/svg" width="25" height="25" viewBox="0 0 25 25">
  <g id="Grupo_16735" data-name="Grupo 16735">
    <rect id="Rectángulo_2351" data-name="Rectángulo 2351" width="25" height="25" fill="#8f979f" opacity="0"/>
    <g id="Grupo_16734" data-name="Grupo 16734">
      <path id="Trazado_34142" data-name="Trazado 34142" d="M20.9,5.53c0,.2-.01.41-.03.62A30.07,30.07,0,0,0,9.3,22H2.69a.682.682,0,0,1-.67-.78L5.16.97A1.106,1.106,0,0,1,6.24.04L15.33,0A5.55,5.55,0,0,1,20.9,5.53Z" fill="#253b80"/>
      <path id="Trazado_34143" data-name="Trazado 34143" d="M19.57,5.58a4.072,4.072,0,0,1,.76.28A4.928,4.928,0,0,0,19.57,5.58Z" fill="#253b80"/>
      <path id="Trazado_34144" data-name="Trazado 34144" d="M20.86,6.15h0c-.03-.02-.05-.03-.08-.05A.351.351,0,0,1,20.86,6.15Z" fill="#253b80"/>
      <path id="Trazado_34145" data-name="Trazado 34145" d="M20.33,5.86a4.928,4.928,0,0,0-.76-.28A4.072,4.072,0,0,1,20.33,5.86Z" fill="#179bd7"/>
      <path id="Trazado_34146" data-name="Trazado 34146" d="M22.93,10.68l-.09.6a7.508,7.508,0,0,1-7.44,6.44h-1a1.032,1.032,0,0,0-1.02.87l-.8,5.72a.807.807,0,0,1-.8.69H7.71a.687.687,0,0,1-.68-.79l1.49-9.78h0c2.33-8.02,5.21-8.98,12.33-8.28h0a4.593,4.593,0,0,1,2.07,4.53Z" fill="#179bd7"/>
      <path id="Trazado_34147" data-name="Trazado 34147" d="M8.78,14.03s.08-.07.12-.1A1.059,1.059,0,0,0,8.78,14.03Z" fill="#179bd7"/>
      <path id="Trazado_34148" data-name="Trazado 34148" d="M20.86,6.15h0c-.03-.02-.05-.03-.08-.05A.351.351,0,0,1,20.86,6.15Z" fill="#179bd7"/>
      <path id="Trazado_34149" data-name="Trazado 34149" d="M20.86,6.15a.594.594,0,0,1-.01.11.34.34,0,0,1-.01.1h0a1.127,1.127,0,0,1-.03.18l-.03.14a.543.543,0,0,0-.02.11.235.235,0,0,1-.02.08l-.04.14a9.163,9.163,0,0,1-8.83,6.72H9.5a.915.915,0,0,0-.17.01H9.3a.09.09,0,0,0-.05.01.145.145,0,0,0-.07.02,1.151,1.151,0,0,0-.25.12c-.01,0-.02.01-.03.02a1.059,1.059,0,0,0-.12.1.265.265,0,0,0-.05.06.218.218,0,0,0-.04.05.865.865,0,0,0-.07.1c0,.02-.02.03-.03.05-.02.05-.04.09-.06.14L9.75,6.4a1.109,1.109,0,0,1,1.1-.94l7.5-.05h.38a.57.57,0,0,1,.13.01h.05c.1.01.2.03.31.05a.7.7,0,0,1,.14.03.075.075,0,0,1,.05.01h.02l.13.03c.1.03.2.06.29.09.16.06.32.12.47.19l.12.06c.04.02.07.04.11.06s.07.04.1.06.09.05.13.08.05.03.08.05Z" fill="#222d65"/>
      <path id="Trazado_34150" data-name="Trazado 34150" d="M8.9,13.93a1.473,1.473,0,0,0-.12.1A1.059,1.059,0,0,1,8.9,13.93Z" fill="#222d65"/>
    </g>
  </g>
</svg>
