<svg id="llamada_telefonica" data-name="llamada telefonica" xmlns="http://www.w3.org/2000/svg" width="23" height="23" viewBox="0 0 23 23">
  <g id="Grupo_16659" data-name="Grupo 16659">
    <rect id="Rectángulo_2310" data-name="Rectángulo 2310" width="23" height="23" fill="#263645" opacity="0"/>
    <g id="Grupo_16658" data-name="Grupo 16658">
      <path id="Trazado_34020" data-name="Trazado 34020" d="M12.96,22.09a7.723,7.723,0,0,1-3.44-1.05,22.272,22.272,0,0,1-7.9-8.03A7.839,7.839,0,0,1,4.43,2.87a2.974,2.974,0,0,1,.68-.26C6.5,2.27,7.99,4.34,8.59,5.77a1.9,1.9,0,0,1-.34,2.37c-1.84,1.96-1.81,2.03-.15,4.23a12.959,12.959,0,0,0,3.64,3.2,1.5,1.5,0,0,0,2.19-.28c.63-.7,1.27-1.84,2.38-1.39a7.6,7.6,0,0,1,3.66,2.62,1.562,1.562,0,0,1-.07,1.82c-1.77,2.08-3.82,3.72-6.95,3.76Z" fill="#263645"/>
      <g id="Grupo_16657" data-name="Grupo 16657" opacity="0.4">
        <path id="Trazado_34021" data-name="Trazado 34021" d="M19.49,3.79A10.755,10.755,0,0,0,13.1.65a1.065,1.065,0,0,0-1.13.78l-.23.83A1.178,1.178,0,0,0,12.7,3.7a8.512,8.512,0,0,1,4.61,2.25,8.344,8.344,0,0,1,2.25,4.61,1.165,1.165,0,0,0,1.44.96l.83-.23a1.039,1.039,0,0,0,.78-1.13,10.755,10.755,0,0,0-3.14-6.39Z" fill="#263645"/>
        <path id="Trazado_34022" data-name="Trazado 34022" d="M16.09,7.2a6.136,6.136,0,0,0-3.65-1.9,1.028,1.028,0,0,0-1.13.84l-.15.74a1.08,1.08,0,0,0,.85,1.22,4.4,4.4,0,0,1,2.07,1.11,4.147,4.147,0,0,1,1.11,2.07,1.072,1.072,0,0,0,1.22.85l.74-.15a1.022,1.022,0,0,0,.84-1.13,6.136,6.136,0,0,0-1.9-3.65Z" fill="#263645"/>
      </g>
    </g>
  </g>
</svg>
