<svg id="telefono" xmlns="http://www.w3.org/2000/svg" width="23" height="23" viewBox="0 0 23 23">
  <g id="Grupo_16651" data-name="Grupo 16651">
    <rect id="Rectángulo_2306" data-name="Rectángulo 2306" width="23" height="23" fill="#abadc4" opacity="0"/>
    <path id="Trazado_34016" data-name="Trazado 34016" d="M14.29,22.09a8.781,8.781,0,0,1-3.9-1.19,25.05,25.05,0,0,1-8.94-9.09A8.858,8.858,0,0,1,4.63.34,2.893,2.893,0,0,1,5.4.05C6.98-.34,8.66,2.01,9.34,3.63a2.157,2.157,0,0,1-.38,2.68C6.88,8.53,6.91,8.6,8.79,11.1a14.572,14.572,0,0,0,4.12,3.62,1.7,1.7,0,0,0,2.48-.32c.72-.79,1.44-2.09,2.7-1.58a8.557,8.557,0,0,1,4.14,2.97,1.773,1.773,0,0,1-.08,2.06c-2,2.36-4.32,4.21-7.86,4.26Z" fill="#abadc4"/>
  </g>
</svg>
