<svg id="recargar_datos" data-name="recargar datos" xmlns="http://www.w3.org/2000/svg" width="23" height="23" viewBox="0 0 23 23">
  <g id="Grupo_16694" data-name="Grupo 16694">
    <rect id="Rectángulo_2334" data-name="Rectángulo 2334" width="23" height="23" fill="#263645" opacity="0"/>
    <g id="Grupo_16693" data-name="Grupo 16693">
      <path id="Trazado_34060" data-name="Trazado 34060" d="M8.38,0A12.615,12.615,0,0,0,.46,2.7,1.234,1.234,0,0,0,.17,4.29l.5.88a1.385,1.385,0,0,0,2,.4A9.878,9.878,0,0,1,8.38,3.61a9.949,9.949,0,0,1,5.71,1.96,1.377,1.377,0,0,0,2-.4l.5-.88A1.236,1.236,0,0,0,16.3,2.7,12.623,12.623,0,0,0,8.37,0Z" fill="#263645" opacity="0.4"/>
      <path id="Trazado_34061" data-name="Trazado 34061" d="M8.38,5.66A7.241,7.241,0,0,0,3.76,7.11a1.206,1.206,0,0,0-.24,1.64l.49.74a1.271,1.271,0,0,0,1.72.3A5.021,5.021,0,0,1,8.37,9a5.113,5.113,0,0,1,2.64.79,1.271,1.271,0,0,0,1.72-.3l.49-.74a1.206,1.206,0,0,0-.24-1.64A7.221,7.221,0,0,0,8.36,5.66Z" fill="#263645" opacity="0.4"/>
      <path id="Trazado_34062" data-name="Trazado 34062" d="M8.37,10.92a1.8,1.8,0,1,0,1.8,1.8A1.8,1.8,0,0,0,8.37,10.92Z" fill="#263645"/>
    </g>
    <path id="Trazado_34063" data-name="Trazado 34063" d="M22.82,10.21a2.2,2.2,0,0,0-.28-.92,1.96,1.96,0,0,0-2.64-.67C15.16,11.15,9.6,16.85,7.61,19.71a1.978,1.978,0,0,0,1.36,3.1H9c1.09.09,3.28.18,5.74.18s4.96-.09,6.05-.18a2.191,2.191,0,0,0,2.03-2.03c.09-1.09.18-2.82.18-5.29s-.09-4.2-.18-5.29ZM19.22,19c-.88,0-1.15-.75-1.15-3.21s.27-3.21,1.15-3.21,1.15.75,1.15,3.21S20.1,19,19.22,19Z" fill="#263645"/>
  </g>
</svg>
