<svg id="recargar_celular" data-name="recargar celular" xmlns="http://www.w3.org/2000/svg" width="23" height="23" viewBox="0 0 23 23">
  <g id="Grupo_16692" data-name="Grupo 16692">
    <rect id="Rectángulo_2333" data-name="Rectángulo 2333" width="23" height="23" fill="#263645" opacity="0"/>
    <g id="Grupo_16690" data-name="Grupo 16690">
      <path id="Trazado_34055" data-name="Trazado 34055" d="M2.89.37A2.94,2.94,0,0,0,.34,3.06C.12,5.74,0,8.57,0,11.5s.12,5.76.34,8.44a2.94,2.94,0,0,0,2.55,2.69A40.289,40.289,0,0,0,8.36,23a40.289,40.289,0,0,0,5.47-.37,2.958,2.958,0,0,0,2.55-2.69c.22-2.68.34-5.51.34-8.44s-.12-5.76-.34-8.44A2.94,2.94,0,0,0,13.83.37,40.619,40.619,0,0,0,2.89.37Z" fill="#263645" opacity="0.4"/>
      <path id="Trazado_34056" data-name="Trazado 34056" d="M8.36,0A34.826,34.826,0,0,0,3.97.28c.02.32.04.63.06.94A1.776,1.776,0,0,0,5.41,2.94a18.76,18.76,0,0,0,2.95.23,18.76,18.76,0,0,0,2.95-.23,1.8,1.8,0,0,0,1.38-1.72c.02-.31.04-.62.06-.94A34.947,34.947,0,0,0,8.36,0Z" fill="#263645"/>
      <path id="Trazado_34057" data-name="Trazado 34057" d="M6.42,19.8c0-.88.45-1.15,1.93-1.15s1.93.27,1.93,1.15-.45,1.15-1.93,1.15-1.93-.27-1.93-1.15Z" fill="#263645"/>
    </g>
    <g id="Grupo_16691" data-name="Grupo 16691">
      <path id="Trazado_34058" data-name="Trazado 34058" d="M23,11.82A12.124,12.124,0,0,0,20.4,4.2a1.2,1.2,0,0,0-1.53-.28l-.85.48a1.324,1.324,0,0,0-.38,1.92,9.559,9.559,0,0,1,1.88,5.49,9.584,9.584,0,0,1-1.88,5.49,1.331,1.331,0,0,0,.38,1.92l.85.48a1.191,1.191,0,0,0,1.53-.28A12.124,12.124,0,0,0,23,11.8Z" fill="#263645"/>
      <path id="Trazado_34059" data-name="Trazado 34059" d="M17.56,11.82a6.927,6.927,0,0,0-1.4-4.44,1.169,1.169,0,0,0-1.58-.23l-.71.47a1.214,1.214,0,0,0-.29,1.65,4.855,4.855,0,0,1,.76,2.54,4.855,4.855,0,0,1-.76,2.54A1.214,1.214,0,0,0,13.87,16l.71.47a1.171,1.171,0,0,0,1.58-.23,6.965,6.965,0,0,0,1.4-4.44Z" fill="#263645"/>
    </g>
  </g>
</svg>
