<svg id="recargar_nauta" data-name="recargar nauta" xmlns="http://www.w3.org/2000/svg" width="25" height="25" viewBox="0 0 25 25">
  <g id="Grupo_16696" data-name="Grupo 16696">
    <rect id="Rectángulo_2335" data-name="Rectángulo 2335" width="25" height="25" fill="#263645" opacity="0"/>
    <g id="Grupo_16695" data-name="Grupo 16695" transform="translate(0.544 2.141)">
      <path id="Trazado_34064" data-name="Trazado 34064" d="M12.457,1.97a18.051,18.051,0,0,0-11.3,3.848A1.76,1.76,0,0,0,.739,8.079L1.457,9.34A1.975,1.975,0,0,0,4.315,9.9a14.181,14.181,0,0,1,8.141-2.793A14.181,14.181,0,0,1,20.6,9.9a1.978,1.978,0,0,0,2.859-.565l.717-1.261a1.76,1.76,0,0,0-.413-2.261,18.051,18.051,0,0,0-11.3-3.848Z" transform="translate(-0.5 -1.97)" fill="#263645" opacity="0.4"/>
      <path id="Trazado_34065" data-name="Trazado 34065" d="M12.079,9.4a10.276,10.276,0,0,0-6.587,2.076,1.72,1.72,0,0,0-.337,2.337l.707,1.054a1.811,1.811,0,0,0,2.457.435,7.194,7.194,0,0,1,3.772-1.13,7.226,7.226,0,0,1,3.772,1.13,1.815,1.815,0,0,0,2.457-.435l.707-1.054a1.718,1.718,0,0,0-.337-2.337A10.276,10.276,0,0,0,12.1,9.4Z" transform="translate(-0.122 -1.324)" fill="#263645" opacity="0.4"/>
      <path id="Trazado_34066" data-name="Trazado 34066" d="M11.685,16.3a2.576,2.576,0,1,0,2.576,2.576A2.558,2.558,0,0,0,11.685,16.3Z" transform="translate(0.249 -0.724)" fill="#263645"/>
    </g>
  </g>
</svg>
