<svg xmlns="http://www.w3.org/2000/svg" width="35" height="35" viewBox="0 0 35 35">
  <g id="Refiere" transform="translate(0.002)">
    <g id="Grupo_18925" data-name="Grupo 18925" transform="translate(-0.002)">
      <rect id="Rect치ngulo_2476" data-name="Rect치ngulo 2476" width="35" height="35" fill="#263645" opacity="0"/>
      <path id="Uni칩n_11" data-name="Uni칩n 11" d="M14.905,32.351A76.011,76.011,0,0,1,1.412,31.033C-.116,30.287-.338,29.541.42,28.013a12.8,12.8,0,0,1,2.6-3.452,16.686,16.686,0,0,1,23.594-.012A16.292,16.292,0,0,1,29.1,27.721c1.061,1.8.886,2.438-.991,3.371a60.383,60.383,0,0,1-12.864,1.26h-.327ZM7.441,8.676a7.476,7.476,0,1,1,7.476,7.476A7.476,7.476,0,0,1,7.441,8.676h0Z" transform="translate(0.002 0.2)" fill="#263645" opacity="0.4"/>
      <path id="Trazado_35588" data-name="Trazado 35588" d="M32.327,23.35a1.371,1.371,0,0,1,.012,1.738,30.034,30.034,0,0,1-5.388,5.155,1.244,1.244,0,0,1-1.994-.9c-.082-.676-.175-1.5-.233-2.449-5.68,0-6.8,2.869-6.939,3.837a1.722,1.722,0,0,1-.385.606,1.923,1.923,0,0,1-1.435.688h0a1.926,1.926,0,0,1-1.47-.676,1.792,1.792,0,0,1-.35-.56c-.128-.945-.4-9.354,10.531-9.354.047-.933.128-1.761.2-2.426a1.221,1.221,0,0,1,1.983-.863,30.411,30.411,0,0,1,5.458,5.225Z" transform="translate(2.349 2.973)" fill="#263645"/>
    </g>
  </g>
</svg>
