<svg id="mis_reportes" data-name="mis reportes" xmlns="http://www.w3.org/2000/svg" width="28" height="28" viewBox="0 0 28 28">
  <g id="Grupo_18923" data-name="Grupo 18923">
    <rect id="Rectángulo_2474" data-name="Rectángulo 2474" width="28" height="28" fill="#e3f4c9" opacity="0"/>
    <g id="Grupo_18922" data-name="Grupo 18922">
      <path id="Trazado_35586" data-name="Trazado 35586" d="M25.33,6.9A13.428,13.428,0,0,0,.85,10.97a.934.934,0,0,0,1.82.42,11.558,11.558,0,1,1,8.65,13.87,12.879,12.879,0,0,1-7.3-4.66l3.87-.06a.935.935,0,0,0-.03-1.87l-6.3.11a.924.924,0,0,0-.92.95l.11,6.3a.926.926,0,0,0,.93.92H1.7A.924.924,0,0,0,2.62,26l-.07-4.25a14.759,14.759,0,0,0,8.35,5.33,13.7,13.7,0,0,0,3.04.35A13.435,13.435,0,0,0,27.36,14.42a13.5,13.5,0,0,0-2.02-7.53Z" fill="#e3f4c9"/>
      <path id="Trazado_35587" data-name="Trazado 35587" d="M15.69,15.39l2.74-6.25a.511.511,0,0,0-.81-.58l-5.06,4.57a1.913,1.913,0,0,0-.48.67,1.97,1.97,0,0,0,3.61,1.58Z" fill="#e3f4c9"/>
    </g>
  </g>
</svg>
