<svg id="enviar_remesas" data-name="enviar remesas" xmlns="http://www.w3.org/2000/svg" width="23" height="23" viewBox="0 0 23 23">
  <g id="Grupo_16699" data-name="Grupo 16699">
    <rect id="Rectángulo_2336" data-name="Rectángulo 2336" width="23" height="23" fill="#263645" opacity="0"/>
    <g id="Grupo_16698" data-name="Grupo 16698">
      <g id="Grupo_16697" data-name="Grupo 16697">
        <circle id="Elipse_1759" data-name="Elipse 1759" cx="7.39" cy="7.39" r="7.39" transform="translate(7.28 0.92)" fill="#263645" opacity="0.4"/>
        <path id="Trazado_34067" data-name="Trazado 34067" d="M16.98,8.66a2.065,2.065,0,0,0-.52-.58,2.892,2.892,0,0,0-.69-.38c-.25-.09-.5-.18-.73-.26-.16-.05-.31-.1-.44-.15a2.156,2.156,0,0,1-.34-.16.6.6,0,0,1-.21-.21.543.543,0,0,1-.07-.29.593.593,0,0,1,.09-.34.659.659,0,0,1,.23-.21.764.764,0,0,1,.31-.11,1.953,1.953,0,0,1,.34-.03,1.529,1.529,0,0,1,.67.16,2.012,2.012,0,0,1,.29.17.429.429,0,0,0,.57-.05l.43-.46a.433.433,0,0,0-.09-.67,2.989,2.989,0,0,0-.65-.31,3.638,3.638,0,0,0-.83-.18V3.89a.66.66,0,1,0-1.32,0v.79h0a2.5,2.5,0,0,0-.86.39,2.208,2.208,0,0,0-.62.67,1.909,1.909,0,0,0-.23.99,1.936,1.936,0,0,0,.15.8,1.736,1.736,0,0,0,.4.56,2.269,2.269,0,0,0,.57.38,5.123,5.123,0,0,0,.65.25c.23.07.43.14.61.2a1.889,1.889,0,0,1,.45.21.981.981,0,0,1,.28.25.518.518,0,0,1,.1.33.784.784,0,0,1-.08.35.523.523,0,0,1-.21.23.965.965,0,0,1-.31.13,1.472,1.472,0,0,1-.36.04,1.856,1.856,0,0,1-.83-.21,2.545,2.545,0,0,1-.39-.24.443.443,0,0,0-.59.03l-.47.47a.439.439,0,0,0,.05.66,3.762,3.762,0,0,0,.77.41,3.824,3.824,0,0,0,1,.23v1.01a.666.666,0,0,0,1.32,0V11.73a.425.425,0,0,0,.11-.02,2.505,2.505,0,0,0,.85-.42,2.079,2.079,0,0,0,.59-.72,2.2,2.2,0,0,0,.22-1.03,1.709,1.709,0,0,0-.2-.86Z" fill="#263645"/>
      </g>
      <path id="Trazado_34068" data-name="Trazado 34068" d="M8.14,21.94a1.4,1.4,0,0,1-1.77.01,30.052,30.052,0,0,1-5.23-5.48,1.267,1.267,0,0,1,.91-2.03c.69-.09,1.53-.17,2.49-.24.11-4.16.39-7.47.52-8.44a1.063,1.063,0,0,1,.55-.83,3.987,3.987,0,0,1,1.77-.45,3.848,3.848,0,0,1,1.8.44,1.018,1.018,0,0,1,.52.79,83.562,83.562,0,0,1,.4,8.46c.95.05,1.78.13,2.47.2a1.239,1.239,0,0,1,.88,2.01,31.557,31.557,0,0,1-5.3,5.54Z" fill="#263645"/>
    </g>
  </g>
</svg>
