<svg xmlns="http://www.w3.org/2000/svg" width="35" height="35" viewBox="0 0 35 35">
  <g id="Reportes" transform="translate(0 0.01)">
    <g id="Grupo_16644" data-name="Grupo 16644" transform="translate(0 -0.01)">
      <rect id="Rectángulo_2304" data-name="Rectángulo 2304" width="35" height="35" fill="#263645" opacity="0"/>
      <g id="Grupo_16643" data-name="Grupo 16643">
        <path id="Trazado_33987" data-name="Trazado 33987" d="M0,26.5a32.053,32.053,0,0,0,.135,3.318A2.75,2.75,0,0,0,2.889,32.3c.53.023,1.242.034,2.167.034s1.625-.011,2.167-.034a2.75,2.75,0,0,0,2.754-2.483,32.053,32.053,0,0,0,.135-3.318,32.053,32.053,0,0,0-.135-3.318,2.75,2.75,0,0,0-2.754-2.483c-.53-.023-1.242-.034-2.167-.034s-1.625.011-2.167.034A2.75,2.75,0,0,0,.135,23.177,32.053,32.053,0,0,0,0,26.5Z" transform="translate(0 2.67)" fill="#263645" opacity="0.4"/>
        <path id="Trazado_33988" data-name="Trazado 33988" d="M22.04,22.3c0,4.424.1,6.93.2,8.341a3.024,3.024,0,0,0,2.878,2.878c.519.034,1.163.056,1.975.056s1.456-.023,1.975-.056a3.024,3.024,0,0,0,2.878-2.878c.1-1.411.2-3.917.2-8.341s-.1-6.93-.2-8.341a3.024,3.024,0,0,0-2.878-2.878c-.519-.034-1.163-.056-1.975-.056s-1.456.023-1.975.056a3.024,3.024,0,0,0-2.878,2.878C22.142,15.365,22.04,17.871,22.04,22.3Z" transform="translate(2.836 1.429)" fill="#263645" opacity="0.4"/>
        <path id="Trazado_33989" data-name="Trazado 33989" d="M11.02,24.7c0,2.652.079,4.323.169,5.384a2.945,2.945,0,0,0,2.889,2.743c.519.023,1.174.034,2,.034s1.479-.011,2-.034a2.945,2.945,0,0,0,2.889-2.743c.09-1.05.169-2.731.169-5.384s-.079-4.323-.169-5.384a2.945,2.945,0,0,0-2.889-2.743c-.519-.023-1.174-.034-2-.034s-1.479.011-2,.034a2.945,2.945,0,0,0-2.889,2.743C11.1,20.366,11.02,22.048,11.02,24.7Z" transform="translate(1.418 2.14)" fill="#263645" opacity="0.4"/>
        <path id="Trazado_33990" data-name="Trazado 33990" d="M31.492.024a25.73,25.73,0,0,0-6.061.485,1.909,1.909,0,0,0-.948,3.228l1.388,1.388c-.44.406-1.016.926-1.659,1.546a67.929,67.929,0,0,0-5.1,5.35.15.15,0,0,1-.113.045.085.085,0,0,1-.056-.011s-.011,0-.023-.023c-.711-.982-1.637-2.257-2.63-3.476A2.978,2.978,0,0,0,12.3,7.947,53.938,53.938,0,0,0,2.2,17.112c-.26.3-.53.609-.8.926a1.554,1.554,0,1,0,2.382,2c.26-.3.508-.6.756-.88a51.8,51.8,0,0,1,9.4-8.567c.914,1.129,1.783,2.3,2.449,3.239a3.246,3.246,0,0,0,5.1.181,67.205,67.205,0,0,1,4.865-5.1c.688-.655,1.275-1.2,1.716-1.6l1.49,1.49a1.907,1.907,0,0,0,3.228-.948,25.731,25.731,0,0,0,.485-6.061A1.877,1.877,0,0,0,31.481-.01Z" transform="translate(0.133 0.01)" fill="#263645"/>
      </g>
    </g>
  </g>
</svg>
