<svg id="buscar_contacto" data-name="buscar contacto" xmlns="http://www.w3.org/2000/svg" xmlns:xlink="http://www.w3.org/1999/xlink" width="20" height="20" viewBox="0 0 20 20">
  <defs>
    <clipPath id="clip-path">
      <rect id="Rectángulo_2327" data-name="Rectángulo 2327" width="20" height="20" fill="none"/>
    </clipPath>
  </defs>
  <g id="Grupo_16682" data-name="Grupo 16682" clip-path="url(#clip-path)">
    <g id="Grupo_5729" data-name="Grupo 5729">
      <path id="Trazado_10443" data-name="Trazado 10443" d="M19.1,15.27l-.03-.03-4.41-3.57a7.86,7.86,0,1,0-3,2.98l3.57,4.41.03.03a2.734,2.734,0,0,0,1.95.9h.07a2.706,2.706,0,0,0,2.71-2.71,2.736,2.736,0,0,0-.9-2.02M3.4,12.25a6.251,6.251,0,1,1,8.84,0,6.253,6.253,0,0,1-8.84,0m14.68,5.84a1.135,1.135,0,0,1-1.63-.03l-3.49-4.32c.14-.12.27-.24.4-.37s.25-.26.37-.4l4.32,3.49a1.126,1.126,0,0,1,.06,1.6l-.03.03" fill="#949494"/>
    </g>
  </g>
</svg>
