<svg id="buscar_pais" data-name="buscar pais" xmlns="http://www.w3.org/2000/svg" width="25" height="25" viewBox="0 0 25 25">
  <g id="Grupo_16680" data-name="Grupo 16680">
    <rect id="Rectángulo_2325" data-name="Rectángulo 2325" width="25" height="25" fill="#263645" opacity="0"/>
    <path id="Trazado_10984" data-name="Trazado 10984" d="M23.61,19.09l-.03-.03-5.53-4.47a9.518,9.518,0,1,0-3.46,3.45l4.47,5.53.03.03a3.174,3.174,0,0,0,2.3,1.06h.09a3.194,3.194,0,0,0,2.13-5.58M4.27,15.36a7.849,7.849,0,1,1,11.1,0,7.858,7.858,0,0,1-11.1,0m18.3,7.2a1.533,1.533,0,0,1-2.17,0,.176.176,0,0,1-.04-.05l-4.39-5.43c.2-.17.4-.35.59-.54s.37-.39.54-.59l5.43,4.39a1.534,1.534,0,0,1,.09,2.17l-.05.05" fill="#fff"/>
  </g>
</svg>
