<svg id="seleccionar_contacto" data-name="seleccionar contacto" xmlns="http://www.w3.org/2000/svg" width="30" height="30" viewBox="0 0 30 30">
  <g id="Grupo_16708" data-name="Grupo 16708">
    <rect id="Rectángulo_2339" data-name="Rectángulo 2339" width="30" height="30" fill="#c5c5c5" opacity="0"/>
    <g id="Grupo_16707" data-name="Grupo 16707">
      <path id="Trazado_175" data-name="Trazado 175" d="M15,.65c7.01,0,10.71.75,12.58,3.74C28.94,6.56,29.34,9.91,29.34,15c0,6.47-.64,10.12-3.09,12.12-2.13,1.74-5.63,2.23-11.26,2.23S6.2,28.91,4.05,27.36C1.34,25.42.64,21.74.64,15c0-5.27.43-8.67,1.91-10.83C4.48,1.37,8.17.65,15,.65Z" fill="#c5c5c5" opacity="0.4"/>
      <g id="Grupo_16706" data-name="Grupo 16706">
        <path id="Trazado_34074" data-name="Trazado 34074" d="M23.75,21.98A10.362,10.362,0,0,0,7.7,20.06a7.7,7.7,0,0,0-1.6,2.1c-.46.93-.33,1.38.61,1.83a46.509,46.509,0,0,0,8.3.8,38.06,38.06,0,0,0,8.12-.77c1.16-.57,1.27-.96.61-2.05Z" fill="#c5c5c5"/>
        <circle id="Elipse_1760" data-name="Elipse 1760" cx="5.16" cy="5.16" r="5.16" transform="translate(9.87 5.21)" fill="#c5c5c5"/>
      </g>
    </g>
  </g>
</svg>
