<svg id="enviar_sms" data-name="enviar sms" xmlns="http://www.w3.org/2000/svg" width="23" height="23" viewBox="0 0 23 23">
  <g id="Grupo_16689" data-name="Grupo 16689">
    <rect id="Rect치ngulo_2332" data-name="Rect치ngulo 2332" width="23" height="23" fill="#263645" opacity="0"/>
    <g id="Grupo_16688" data-name="Grupo 16688">
      <path id="Trazado_34054" data-name="Trazado 34054" d="M19.37,18.6a2.526,2.526,0,0,0,2.38-2.31c.12-1.39.24-3.51.24-6.45s-.12-5.06-.24-6.45a2.526,2.526,0,0,0-2.38-2.31C17.76.97,15.18.85,11.5.85s-6.26.12-7.87.23A2.526,2.526,0,0,0,1.25,3.39c-.12,1.39-.24,3.51-.24,6.45s.12,5.06.24,6.45A2.526,2.526,0,0,0,3.63,18.6c1.5.1,3.83.21,7.12.23l3.6,3.08A1,1,0,0,0,16,21.15V18.76c1.41-.04,2.52-.11,3.37-.16Z" fill="#263645" opacity="0.4"/>
      <path id="Uni칩n_3" data-name="Uni칩n 3" d="M5.98,11.19A3.475,3.475,0,0,1,6,10.7a.524.524,0,0,1,.12-.26c.27-.29,1.04-.29,3.24-.29,2.33,0,3.05,0,3.28.34a1.343,1.343,0,0,1,.1.7,2.292,2.292,0,0,1-.04.57.43.43,0,0,1-.18.24c-.33.22-1.14.22-3.16.22-2.22,0-2.98,0-3.25-.29-.14-.15-.14-.39-.14-.74Zm0-3.58c0-.35,0-.58.24-.74.48-.3,1.9-.3,6.1-.3,3.72,0,5.26,0,5.9.21a.685.685,0,0,1,.34.21,1.015,1.015,0,0,1,.11.61,1.065,1.065,0,0,1-.1.6c-.3.44-1.49.44-6.25.44s-5.95,0-6.25-.44a1.065,1.065,0,0,1-.1-.6Z" fill="#263645"/>
    </g>
  </g>
</svg>
