<svg id="recargas" xmlns="http://www.w3.org/2000/svg" width="25" height="25" viewBox="0 0 25 25">
  <g id="Grupo_16672" data-name="Grupo 16672">
    <rect id="Rectángulo_2319" data-name="Rectángulo 2319" width="25" height="25" fill="#5f6368" opacity="0"/>
    <g id="Grupo_16671" data-name="Grupo 16671">
      <path id="Trazado_34038" data-name="Trazado 34038" d="M21.35,3.99A3.817,3.817,0,0,0,18.08.54,40.486,40.486,0,0,0,13.64.19Q12.5.145,11.36.19A40.486,40.486,0,0,0,6.92.54,3.817,3.817,0,0,0,3.65,3.99c-.22,2.75-.34,5.62-.34,8.51s.11,5.75.34,8.51a3.817,3.817,0,0,0,3.27,3.45,41.073,41.073,0,0,0,5.58.37,42.632,42.632,0,0,0,5.58-.37,3.817,3.817,0,0,0,3.27-3.45c.22-2.75.34-5.62.34-8.51s-.11-5.75-.34-8.51ZM16.01,2.02a1.34,1.34,0,0,1-.01.2,1.065,1.065,0,0,1-.68,1.04,17.1,17.1,0,0,1-5.62,0,1.065,1.065,0,0,1-.68-1.04,1.34,1.34,0,0,0-.01-.2c.82-.09,1.65-.15,2.48-.17.69-.02,1.38-.02,2.06,0,.83.03,1.66.08,2.48.17Zm3.68,18.85a2.147,2.147,0,0,1-1.83,1.94,40.927,40.927,0,0,1-10.72,0,2.138,2.138,0,0,1-1.83-1.94c-.22-2.71-.33-5.53-.33-8.37s.11-5.66.33-8.37A2.147,2.147,0,0,1,7.14,2.19a1.225,1.225,0,0,0,.19-.02v.16A2.682,2.682,0,0,0,9.4,4.91a18.585,18.585,0,0,0,3.09.26,18.5,18.5,0,0,0,3.09-.26,2.673,2.673,0,0,0,2.07-2.58V2.17a1.225,1.225,0,0,1,.19.02,2.138,2.138,0,0,1,1.83,1.94c.22,2.71.33,5.53.33,8.37s-.11,5.66-.33,8.37Z" fill="#5f6368"/>
      <path id="Trazado_34039" data-name="Trazado 34039" d="M12.5,18.98c-1.48,0-1.93.27-1.93,1.15s.45,1.15,1.93,1.15,1.93-.27,1.93-1.15S13.98,18.98,12.5,18.98Z" fill="#5f6368"/>
    </g>
  </g>
</svg>
