<svg id="recargas_select" data-name="recargas select" xmlns="http://www.w3.org/2000/svg" width="25" height="25" viewBox="0 0 25 25">
  <g id="Grupo_16670" data-name="Grupo 16670">
    <rect id="Rectángulo_2318" data-name="Rectángulo 2318" width="25" height="25" fill="#8f979f" opacity="0"/>
    <path id="Trazado_34034" data-name="Trazado 34034" d="M12.5,4.39a16.974,16.974,0,0,1-2.96-.25A1.891,1.891,0,0,1,8.12,2.28L8.06,1.22l.84-.09Q10.145.995,11.45.95c.36,0,.71-.01,1.06-.01s.7,0,1.05.01q1.3.045,2.55.18l.84.09-.06,1.05a1.891,1.891,0,0,1-1.43,1.86,18,18,0,0,1-2.96.25Z" fill="#8ab934"/>
    <path id="Trazado_34035" data-name="Trazado 34035" d="M12.5,24.06a41.012,41.012,0,0,1-5.48-.36,3.041,3.041,0,0,1-2.6-2.75c-.22-2.73-.33-5.57-.33-8.45s.11-5.71.33-8.44a3.041,3.041,0,0,1,2.6-2.75l1.07-.15.13.95v.16A1.793,1.793,0,0,0,9.56,4.02a17.948,17.948,0,0,0,2.94.25,16.911,16.911,0,0,0,2.94-.25,1.789,1.789,0,0,0,1.33-1.76l.06-.96.96-.03.19.02a3.041,3.041,0,0,1,2.6,2.75c.22,2.73.33,5.57.33,8.44s-.11,5.71-.33,8.45a3.041,3.041,0,0,1-2.6,2.75,41.012,41.012,0,0,1-5.48.36Z" fill="#d0e3ae"/>
    <path id="Trazado_34036" data-name="Trazado 34036" d="M12.5,18.98c-1.48,0-1.93.27-1.93,1.15s.45,1.15,1.93,1.15,1.93-.27,1.93-1.15S13.98,18.98,12.5,18.98Z" fill="#263645"/>
    <path id="Trazado_34037" data-name="Trazado 34037" d="M21.35,3.99A3.817,3.817,0,0,0,18.08.54,40.486,40.486,0,0,0,13.64.19Q12.5.145,11.36.19A40.486,40.486,0,0,0,6.92.54,3.817,3.817,0,0,0,3.65,3.99c-.22,2.75-.34,5.62-.34,8.51s.11,5.75.34,8.51a3.817,3.817,0,0,0,3.27,3.45,41.073,41.073,0,0,0,5.58.37,42.632,42.632,0,0,0,5.58-.37,3.817,3.817,0,0,0,3.27-3.45c.22-2.75.34-5.62.34-8.51s-.11-5.75-.34-8.51ZM16.01,2.02a1.34,1.34,0,0,1-.01.2,1.065,1.065,0,0,1-.68,1.04,17.1,17.1,0,0,1-5.62,0,1.065,1.065,0,0,1-.68-1.04,1.34,1.34,0,0,0-.01-.2c.82-.09,1.65-.15,2.48-.17.69-.02,1.38-.02,2.06,0,.83.03,1.66.08,2.48.17Zm3.68,18.85a2.147,2.147,0,0,1-1.83,1.94,40.927,40.927,0,0,1-10.72,0,2.138,2.138,0,0,1-1.83-1.94c-.22-2.71-.33-5.53-.33-8.37s.11-5.66.33-8.37A2.147,2.147,0,0,1,7.14,2.19a1.225,1.225,0,0,0,.19-.02v.16A2.682,2.682,0,0,0,9.4,4.91a18.585,18.585,0,0,0,3.09.26,18.5,18.5,0,0,0,3.09-.26,2.673,2.673,0,0,0,2.07-2.58V2.17a1.225,1.225,0,0,1,.19.02,2.138,2.138,0,0,1,1.83,1.94c.22,2.71.33,5.53.33,8.37s-.11,5.66-.33,8.37Z" fill="#263645"/>
  </g>
</svg>
