<svg id="enviar_sms" data-name="enviar sms" xmlns="http://www.w3.org/2000/svg" width="25" height="25" viewBox="0 0 25 25">
  <g id="Grupo_16664" data-name="Grupo 16664">
    <rect id="Rect치ngulo_2313" data-name="Rect치ngulo 2313" width="25" height="25" fill="#5f6368" opacity="0"/>
    <g id="Grupo_16663" data-name="Grupo 16663">
      <path id="Trazado_34026" data-name="Trazado 34026" d="M16.3,24.92a1.863,1.863,0,0,1-1.24-.47L11.38,21.3c-3.54-.02-6.02-.15-7.48-.25A3.594,3.594,0,0,1,.54,17.78C.36,15.77.27,13.38.27,10.7S.36,5.63.54,3.62A3.577,3.577,0,0,1,3.89.34C5.54.22,8.38.09,12.5.09s6.96.14,8.61.25a3.594,3.594,0,0,1,3.36,3.27c.18,2.01.27,4.4.27,7.08s-.09,5.07-.27,7.08a3.594,3.594,0,0,1-3.36,3.27c-.89.06-1.85.11-2.89.15v1.79a1.887,1.887,0,0,1-1.12,1.74,1.945,1.945,0,0,1-.81.18ZM12.5,1.75c-4.07,0-6.87.14-8.5.25A1.907,1.907,0,0,0,2.19,3.75c-.12,1.35-.26,3.65-.26,6.94s.14,5.59.26,6.94A1.9,1.9,0,0,0,4,19.38c1.49.1,4.02.23,7.68.25a.82.82,0,0,1,.54.2l3.91,3.35a.236.236,0,0,0,.27.04.24.24,0,0,0,.15-.23v-2.6a.83.83,0,0,1,.81-.83c1.32-.04,2.54-.1,3.63-.18h0a1.907,1.907,0,0,0,1.81-1.75c.12-1.35.26-3.65.26-6.94s-.14-5.59-.26-6.94A1.9,1.9,0,0,0,20.99,2c-1.63-.11-4.42-.25-8.5-.25Z" fill="#5f6368"/>
      <path id="Uni칩n_3" data-name="Uni칩n 3" d="M6.17,13.16c0-.41,0-.67.18-.84.31-.29,1.17-.29,3.5-.29q3.68,0,3.68,1.13a1.325,1.325,0,0,1-.13.79c-.27.34-1.08.34-3.55.34s-3.35,0-3.58-.39a1.512,1.512,0,0,1-.1-.74Zm0-5.22c0-.31,0-.54.15-.7.39-.42,1.77-.42,6.75-.42,4.59,0,6.12,0,6.64.33.26.17.26.42.26.79,0,.32,0,.55-.16.71-.39.42-1.79.42-6.74.42-5.42,0-6.58,0-6.83-.55a1.417,1.417,0,0,1-.07-.58Z" fill="#5f6368"/>
    </g>
  </g>
</svg>
