<svg id="enviar_sms_select" data-name="enviar sms select" xmlns="http://www.w3.org/2000/svg" width="25" height="25" viewBox="0 0 25 25">
  <g id="Grupo_16662" data-name="Grupo 16662">
    <rect id="Rect치ngulo_2312" data-name="Rect치ngulo 2312" width="25" height="25" fill="#8f979f" opacity="0"/>
    <path id="Trazado_34024" data-name="Trazado 34024" d="M16.3,24.25a1.223,1.223,0,0,1-.81-.31l-3.86-3.31c-3.64-.02-6.19-.15-7.69-.25A2.888,2.888,0,0,1,1.2,17.72c-.12-1.38-.26-3.71-.26-7.03s.14-5.65.26-7.02A2.905,2.905,0,0,1,3.94,1C5.59.89,8.41.75,12.5.75s6.92.14,8.56.25A2.889,2.889,0,0,1,23.8,3.67c.12,1.38.26,3.71.26,7.02s-.14,5.65-.26,7.02a2.905,2.905,0,0,1-2.74,2.67c-1.05.07-2.23.13-3.51.17v2.44a1.241,1.241,0,0,1-.73,1.14,1.178,1.178,0,0,1-.53.12h0Z" fill="#d0e3ae"/>
    <path id="Trazado_34025" data-name="Trazado 34025" d="M16.3,24.92a1.863,1.863,0,0,1-1.24-.47L11.38,21.3c-3.54-.02-6.02-.15-7.48-.25A3.594,3.594,0,0,1,.54,17.78C.36,15.77.27,13.38.27,10.7S.36,5.63.54,3.62A3.577,3.577,0,0,1,3.89.34C5.54.22,8.38.09,12.5.09s6.96.14,8.61.25a3.594,3.594,0,0,1,3.36,3.27c.18,2.01.27,4.4.27,7.08s-.09,5.07-.27,7.08a3.594,3.594,0,0,1-3.36,3.27c-.89.06-1.85.11-2.89.15v1.79a1.887,1.887,0,0,1-1.12,1.74,1.945,1.945,0,0,1-.81.18ZM12.5,1.75c-4.07,0-6.87.14-8.5.25A1.907,1.907,0,0,0,2.19,3.75c-.12,1.35-.26,3.65-.26,6.94s.14,5.59.26,6.94A1.9,1.9,0,0,0,4,19.38c1.49.1,4.02.23,7.68.25a.82.82,0,0,1,.54.2l3.91,3.35a.236.236,0,0,0,.27.04.24.24,0,0,0,.15-.23v-2.6a.83.83,0,0,1,.81-.83c1.32-.04,2.54-.1,3.63-.18h0a1.907,1.907,0,0,0,1.81-1.75c.12-1.35.26-3.65.26-6.94s-.14-5.59-.26-6.94A1.9,1.9,0,0,0,20.99,2c-1.63-.11-4.42-.25-8.5-.25Z" fill="#263645"/>
    <path id="Uni칩n_3" data-name="Uni칩n 3" d="M6.17,13.16c0-.47,0-.75.27-.91.38-.22,1.27-.22,3.41-.22a15.608,15.608,0,0,1,3.22.14c.46.14.46.42.46.99,0,.44,0,.7-.21.87-.34.26-1.21.26-3.46.26a19.39,19.39,0,0,1-3.11-.11c-.57-.13-.57-.41-.57-1.01Zm0-5.22c0-.37,0-.62.25-.79.51-.33,2.04-.33,6.64-.33s6.13,0,6.64.33c.25.17.25.42.25.79a1.271,1.271,0,0,1-.09.62c-.29.51-1.52.51-6.81.51-4.62,0-6.15,0-6.65-.34-.25-.17-.25-.42-.25-.79Z" fill="#263645"/>
  </g>
</svg>
