<svg id="mi_cuenta" data-name="mi cuenta" xmlns="http://www.w3.org/2000/svg" width="25" height="25" viewBox="0 0 25 25">
  <rect id="Rectángulo_2458" data-name="Rectángulo 2458" width="25" height="25" fill="#8f979f" opacity="0"/>
  <g id="Grupo_18898" data-name="Grupo 18898">
    <path id="Trazado_35566" data-name="Trazado 35566" d="M23.37,20.25A12.731,12.731,0,0,0,3.46,17.82a9.906,9.906,0,0,0-2.04,2.71A2.126,2.126,0,0,0,2.51,23.8a.864.864,0,0,0,.21.07,55.408,55.408,0,0,0,9.78.96h.61a44.625,44.625,0,0,0,9-.92.679.679,0,0,0,.2-.07,2.7,2.7,0,0,0,1.57-1.48,2.693,2.693,0,0,0-.52-2.1Zm-1.7,2.05a42.293,42.293,0,0,1-8.9.86h-.25a53.709,53.709,0,0,1-9.38-.91c-.54-.27-.56-.32-.24-.98a8.128,8.128,0,0,1,1.71-2.26A11.094,11.094,0,0,1,21.94,21.1a2.539,2.539,0,0,1,.36.77c-.01.02-.1.15-.63.43Z" fill="#5f6368"/>
    <path id="Trazado_35567" data-name="Trazado 35567" d="M12.53,12.52h0A6.175,6.175,0,1,0,6.35,6.35h0a6.184,6.184,0,0,0,6.18,6.18ZM8.02,6.34a4.511,4.511,0,1,1,4.51,4.51h0A4.511,4.511,0,0,1,8.02,6.34h0Z" fill="#5f6368"/>
  </g>
</svg>
