<svg id="mi_cuenta_activado" data-name="mi cuenta activado" xmlns="http://www.w3.org/2000/svg" width="25" height="25" viewBox="0 0 25 25">
  <g id="Grupo_18897" data-name="Grupo 18897">
    <rect id="Rectángulo_2457" data-name="Rectángulo 2457" width="25" height="25" fill="#8f979f" opacity="0"/>
    <path id="Trazado_35562" data-name="Trazado 35562" d="M12.46,24.05a54.859,54.859,0,0,1-9.48-.92l-.12-.02-.11-.05c-1.14-.57-1.09-1.25-.64-2.17a9.392,9.392,0,0,1,1.9-2.52,11.975,11.975,0,0,1,16.91.01,11.718,11.718,0,0,1,1.78,2.27,3.259,3.259,0,0,1,.46,1.04l.08.29-.15.31a2.157,2.157,0,0,1-1.02.82l-.11.06-.12.02a43.532,43.532,0,0,1-8.76.88h-.63Z" fill="#d0e3ae"/>
    <path id="Trazado_35563" data-name="Trazado 35563" d="M7.2,6.34a5.332,5.332,0,1,1,5.33,5.33h0A5.335,5.335,0,0,1,7.2,6.34h0Z" fill="#d0e3ae"/>
    <g id="Grupo_18896" data-name="Grupo 18896">
      <path id="Trazado_35564" data-name="Trazado 35564" d="M23.37,20.25A12.731,12.731,0,0,0,3.46,17.82a9.906,9.906,0,0,0-2.04,2.71A2.126,2.126,0,0,0,2.51,23.8a.864.864,0,0,0,.21.07,55.408,55.408,0,0,0,9.78.96h.61a44.625,44.625,0,0,0,9-.92.679.679,0,0,0,.2-.07,2.7,2.7,0,0,0,1.57-1.48,2.693,2.693,0,0,0-.52-2.1Zm-1.7,2.05a42.293,42.293,0,0,1-8.9.86h-.25a53.709,53.709,0,0,1-9.38-.91c-.54-.27-.56-.32-.24-.98a8.128,8.128,0,0,1,1.71-2.26A11.094,11.094,0,0,1,21.94,21.1a2.539,2.539,0,0,1,.36.77c-.01.02-.1.15-.63.43Z" fill="#263645"/>
      <path id="Trazado_35565" data-name="Trazado 35565" d="M12.53,12.52h0A6.175,6.175,0,1,0,6.35,6.35h0a6.184,6.184,0,0,0,6.18,6.18ZM8.02,6.34a4.511,4.511,0,1,1,4.51,4.51h0A4.511,4.511,0,0,1,8.02,6.34h0Z" fill="#263645"/>
    </g>
  </g>
</svg>
