<svg id="inicio_select" data-name="inicio select" xmlns="http://www.w3.org/2000/svg" width="25" height="25" viewBox="0 0 25 25">
  <g id="Grupo_16666" data-name="Grupo 16666">
    <rect id="Rectángulo_2314" data-name="Rectángulo 2314" width="25" height="25" fill="#8f979f" opacity="0"/>
    <g id="Grupo_16665" data-name="Grupo 16665">
      <path id="Trazado_34027" data-name="Trazado 34027" d="M12.5,24.17c-1.12,0-2.25-.02-3.36-.07l-.82-.03-.04-.82c-.03-.62-.04-1.34-.04-2.17,0-1,.02-1.85.06-2.53a1.645,1.645,0,0,1,1.43-1.59,21.818,21.818,0,0,1,2.78-.15,21.818,21.818,0,0,1,2.78.15,1.629,1.629,0,0,1,1.42,1.59c.04.68.06,1.53.06,2.53,0,.83-.01,1.55-.04,2.17l-.04.82-.82.03c-1.11.04-2.24.07-3.36.07Z" fill="#8ab934"/>
      <path id="Trazado_34028" data-name="Trazado 34028" d="M16.61,23.09c.02-.59.04-1.26.04-2.01,0-.98-.02-1.83-.06-2.52a1.511,1.511,0,0,0-1.32-1.48,21.481,21.481,0,0,0-2.76-.15,21.481,21.481,0,0,0-2.76.15,1.511,1.511,0,0,0-1.32,1.48c-.04.69-.06,1.54-.06,2.52,0,.75.01,1.42.04,2.01l.04.99-.99-.06c-.68-.04-1.36-.09-2.03-.15a3.406,3.406,0,0,1-3.06-3.01,52.8,52.8,0,0,1-.31-5.66,50.022,50.022,0,0,1,.31-5.65V9.5l.02-.05C2.8,7.63,10.01.82,12.5.82s9.74,6.93,10.13,8.62l.02.1a52.8,52.8,0,0,1,.31,5.66,50.33,50.33,0,0,1-.31,5.66,3.406,3.406,0,0,1-3.06,3.01c-.67.06-1.35.11-2.03.15l-.99.06.04-.99Z" fill="#d0e3ae"/>
      <path id="Trazado_34029" data-name="Trazado 34029" d="M23.42,9.46c-.17-1.53-3.75-4.81-4.46-5.45C17.31,2.53,14.28.05,12.5.05S7.69,2.53,6.05,4.01c-.72.64-4.29,3.92-4.46,5.45a51.684,51.684,0,0,0-.31,5.75,54.21,54.21,0,0,0,.31,5.75,4.165,4.165,0,0,0,3.76,3.69c2.32.21,4.73.31,7.16.31s4.83-.1,7.16-.31a4.174,4.174,0,0,0,3.76-3.69,51.685,51.685,0,0,0,.31-5.75,54.21,54.21,0,0,0-.31-5.75ZM9.17,23.22c-.03-.61-.04-1.32-.04-2.13,0-.97.02-1.8.06-2.47a.752.752,0,0,1,.65-.76,21.776,21.776,0,0,1,2.66-.14,21.776,21.776,0,0,1,2.66.14.745.745,0,0,1,.65.76c.04.67.06,1.5.06,2.47,0,.81-.02,1.52-.04,2.13C13.62,23.31,11.38,23.31,9.17,23.22Zm12.59-2.45a2.512,2.512,0,0,1-2.25,2.22q-.99.09-2.01.15c.02-.59.04-1.28.04-2.04,0-1-.02-1.87-.06-2.58a2.4,2.4,0,0,0-2.1-2.31,23.428,23.428,0,0,0-2.88-.15,23.428,23.428,0,0,0-2.88.15,2.4,2.4,0,0,0-2.1,2.31q-.06,1.065-.06,2.58c0,.76.01,1.45.04,2.04q-1.02-.06-2.01-.15a2.5,2.5,0,0,1-2.25-2.22,51.58,51.58,0,0,1,0-11.11c.32-1.35,7.22-7.94,9.26-7.94s8.96,6.61,9.26,7.93a50.823,50.823,0,0,1,.3,5.56,50.824,50.824,0,0,1-.3,5.56Z" fill="#263645"/>
    </g>
  </g>
</svg>
