<svg id="llamadas_select" data-name="llamadas select" xmlns="http://www.w3.org/2000/svg" width="25" height="25" viewBox="0 0 25 25">
  <g id="Grupo_16668" data-name="Grupo 16668">
    <rect id="Rectángulo_2316" data-name="Rectángulo 2316" width="25" height="25" fill="#8f979f" opacity="0"/>
    <path id="Trazado_34031" data-name="Trazado 34031" d="M15.36,24.06a9.2,9.2,0,0,1-4.04-1.25,26.278,26.278,0,0,1-9.33-9.48A9.348,9.348,0,0,1,5.32,1.3,3.121,3.121,0,0,1,6.14.99,1.518,1.518,0,0,1,6.52.94c1.59,0,3.17,2.34,3.79,3.81A2.307,2.307,0,0,1,9.9,7.6c-2.11,2.25-2.15,2.29-.18,4.91A15.07,15.07,0,0,0,14,16.27a2.3,2.3,0,0,0,1.18.4,1.847,1.847,0,0,0,1.33-.72c.12-.14.25-.29.38-.45.64-.78,1.15-1.33,1.9-1.33a1.644,1.644,0,0,1,.6.12c1.49.6,3.46,1.63,4.34,3.11a1.883,1.883,0,0,1-.09,2.21c-1.84,2.16-4.25,4.38-8.18,4.45h-.1Z" fill="#d0e3ae"/>
    <path id="Trazado_34032" data-name="Trazado 34032" d="M15.4,24.83h-.07a9.874,9.874,0,0,1-4.42-1.36,27.081,27.081,0,0,1-9.6-9.76A10.047,10.047,0,0,1,4.93.63,3.807,3.807,0,0,1,5.95.24c2.19-.54,4.23,2.22,5.07,4.22a3.046,3.046,0,0,1-.56,3.68c-.75.8-1.4,1.5-1.41,1.84a6.053,6.053,0,0,0,1.29,2.07,14.229,14.229,0,0,0,4.06,3.56c.71.43,1.01.4,1.53-.18.12-.13.23-.27.35-.42.64-.79,1.72-2.11,3.38-1.44,1.6.65,3.72,1.77,4.72,3.43a2.649,2.649,0,0,1-.16,3.11c-1.85,2.17-4.52,4.67-8.81,4.72H15.4Zm-8.88-23a.5.5,0,0,0-.17.02,2.213,2.213,0,0,0-.59.22,8.425,8.425,0,0,0-3,10.82,25.5,25.5,0,0,0,9.02,9.16,8.3,8.3,0,0,0,3.65,1.12c3.58-.06,5.81-2.12,7.52-4.14a1.022,1.022,0,0,0,0-1.18,8.07,8.07,0,0,0-3.91-2.74c-.42-.17-.7,0-1.47.95-.14.17-.27.33-.41.48a2.569,2.569,0,0,1-3.63.48,15.889,15.889,0,0,1-4.52-3.98c-2.22-2.94-2.2-3.45.24-6.05.56-.6.61-1,.24-1.9C8.81,3.47,7.45,1.83,6.53,1.83Z" fill="#263645"/>
  </g>
</svg>
