<svg id="recarga_ahora" data-name="recarga ahora" xmlns="http://www.w3.org/2000/svg" width="30" height="30" viewBox="0 0 30 30">
  <g id="Grupo_16705" data-name="Grupo 16705">
    <rect id="Rectángulo_2338" data-name="Rectángulo 2338" width="30" height="30" fill="#263645" opacity="0"/>
    <g id="Grupo_16704" data-name="Grupo 16704">
      <path id="Trazado_34072" data-name="Trazado 34072" d="M13.98,3.9A5.54,5.54,0,0,0,8.44,9.44a1.23,1.23,0,0,1-2.46,0,8,8,0,1,1,16,0,1.23,1.23,0,0,1-2.46,0A5.54,5.54,0,0,0,13.98,3.9Z" fill="#6aa500" fill-rule="evenodd"/>
      <path id="Trazado_34073" data-name="Trazado 34073" d="M15.43,6.13a9.325,9.325,0,0,0-2.24,0A2.558,2.558,0,0,0,11.06,8.6c-.13,1.97-.31,5.38-.34,9.18-.08-.06-.17-.12-.27-.19-.52-.37-1.26-.88-2.15-1.44a2.474,2.474,0,0,0-3.25.29A5.9,5.9,0,0,0,3.92,18.6a1.994,1.994,0,0,0,.29,1.65,33.727,33.727,0,0,0,6.37,7.26,2.874,2.874,0,0,0,1.33.57,34.588,34.588,0,0,0,10.75.14,2.659,2.659,0,0,0,1.98-1.53,17.188,17.188,0,0,0,1.49-7.83,3.945,3.945,0,0,0-2.71-3.57,19.749,19.749,0,0,0-4.05-.89c-.54-.06-.99-.1-1.3-.11h-.16c-.03-1.38-.2-3.94-.33-5.65a2.6,2.6,0,0,0-2.16-2.48Z" fill="#6aa500" opacity="0.4"/>
    </g>
  </g>
</svg>
