<svg xmlns="http://www.w3.org/2000/svg" width="30" height="30" viewBox="0 0 30 30">
  <g id="visa" transform="translate(0.425 0.425)">
    <g id="Grupo_18951" data-name="Grupo 18951" transform="translate(-0.424 -0.425)">
      <rect id="Rectángulo_2490" data-name="Rectángulo 2490" width="30" height="30" transform="translate(0 0)" fill="#8f979f" opacity="0"/>
      <g id="Grupo_18950" data-name="Grupo 18950" transform="translate(0.411 6.993)">
        <path id="Trazado_35612" data-name="Trazado 35612" d="M26.82,21.641H2.358a2.322,2.322,0,0,1-1.4-.467A2.31,2.31,0,0,1,0,19.295V8A2.363,2.363,0,0,1,2.358,5.64H26.831A2.363,2.363,0,0,1,29.189,8V19.283a2.361,2.361,0,0,1-2.358,2.358Z" transform="translate(0 -5.64)" fill="#273991"/>
        <g id="Grupo_18949" data-name="Grupo 18949" transform="translate(1.109 3.863)">
          <path id="Trazado_35613" data-name="Trazado 35613" d="M8.225,9.09,6.078,14.575l-.222-.829A8.529,8.529,0,0,0,2.81,10.421l1.961,6.7H7.093l3.455-8.03H8.225Zm3.209,0-1.365,8.041H12.24L13.617,9.09Zm14.39,0h-1.7a1.09,1.09,0,0,0-1.144.665L19.733,17.12h2.3s.373-.992.455-1.214h2.8c.07.28.268,1.2.268,1.2h2.031l-1.774-8.03Zm-2.7,5.182c.187-.455.875-2.252.875-2.252s.187-.455.292-.77l.152.689.5,2.322H23.129ZM18.04,12.311c-.759-.373-1.225-.619-1.225-.992s.4-.689,1.249-.689a4.106,4.106,0,0,1,1.634.3l.2.093.292-1.739a5.637,5.637,0,0,0-1.961-.338c-2.171,0-3.688,1.085-3.7,2.649,0,1.155,1.085,1.8,1.914,2.171s1.155.654,1.155,1c0,.537-.677.782-1.307.782a4.694,4.694,0,0,1-2.066-.432L13.944,15l-.3,1.8a6.722,6.722,0,0,0,2.439.432c2.3,0,3.793-1.074,3.816-2.743,0-.9-.584-1.6-1.867-2.171Z" transform="translate(-0.639 -8.95)" fill="#fff"/>
          <path id="Trazado_35614" data-name="Trazado 35614" d="M5.338,9.655A.863.863,0,0,0,4.381,9H.973L.95,9.176a6.946,6.946,0,0,1,5.112,4.038l-.735-3.56Z" transform="translate(-0.95 -8.943)" fill="#f99f1b"/>
        </g>
      </g>
    </g>
  </g>
</svg>
