<svg id="Saldo" xmlns="http://www.w3.org/2000/svg" width="30" height="30" viewBox="0 0 30 30">
  <g id="Grupo_16629" data-name="Grupo 16629">
    <rect id="Rectángulo_2298" data-name="Rectángulo 2298" width="30" height="30" fill="#263645" opacity="0"/>
    <g id="Grupo_16628" data-name="Grupo 16628">
      <path id="Trazado_33969" data-name="Trazado 33969" d="M23.03,8.41a45.876,45.876,0,0,0-8.91-.48c-6.46,0-9.72.11-11.35,1.63-1.52,1.41-1.65,4.02-1.65,8.89,0,10.1.52,10.52,13,10.52s13-.42,13-10.52c0-6.73-.23-9.17-4.09-10.04Zm-2.29,11.4c-1.64,0-2.14-.3-2.14-1.27s.5-1.27,2.14-1.27,2.14.3,2.14,1.27S22.38,19.81,20.74,19.81Z" fill="#263645" opacity="0.4"/>
      <path id="Trazado_33970" data-name="Trazado 33970" d="M23.03,8.41a45.876,45.876,0,0,0-8.91-.48c-6.46,0-9.72.11-11.35,1.63.97-1.24,2.99-2.54,6.32-4.57C17.38-.09,17.9-.03,21.85,6.43,22.3,7.16,22.69,7.82,23.03,8.41Z" fill="#263645"/>
      <path id="Trazado_33971" data-name="Trazado 33971" d="M22.54,14.63c-6.32,0-6.59.15-6.59,3.81s.27,3.81,6.59,3.81,6.59-.15,6.59-3.81-.27-3.81-6.59-3.81Zm-1.79,5.18c-1.64,0-2.14-.3-2.14-1.27s.5-1.27,2.14-1.27,2.14.3,2.14,1.27S22.39,19.81,20.75,19.81Z" fill="#263645"/>
    </g>
  </g>
</svg>
